<?xml version="1.0" standalone="no"?>
<!DOCTYPE svg PUBLIC "-//W3C//DTD SVG 1.1//EN" "http://www.w3.org/Graphics/SVG/1.1/DTD/svg11.dtd" >
<svg xmlns="http://www.w3.org/2000/svg" xmlns:xlink="http://www.w3.org/1999/xlink" version="1.1">
<metadata>
Created by FontForge 20190801 at Tue May 12 06:25:45 2015
 By Jimmy Wärting
Douglas Charles Cunha
</metadata>
<defs>
<font id="SoftElegance-Regular" horiz-adv-x="350" >
  <font-face 
    font-family="Soft Elegance"
    font-weight="500"
    font-stretch="normal"
    units-per-em="1000"
    panose-1="2 0 6 4 6 0 0 2 0 3"
    ascent="800"
    descent="-200"
    x-height="462"
    cap-height="695"
    bbox="-236 -295 1077 931"
    underline-thickness="20"
    underline-position="-143"
    unicode-range="U+0005-E00E"
  />
<missing-glyph horiz-adv-x="1000" 
 />
    <glyph glyph-name=".notdef" horiz-adv-x="1000" 
 />
    <glyph glyph-name="controlENQ" 
d="M329 660q-15 -41 -30.5 -65t-35.5 -41q-42 -34 -89 -34q-46 0 -88 34q-20 17 -35.5 41t-29.5 65h66q11 -22 19.5 -33.5t19.5 -19.5q22 -15 48 -15q25 0 48 14q11 8 20 20t20 34h67v0z" />
    <glyph glyph-name="controlACK" 
d="M118 535v114h113v-113z" />
    <glyph glyph-name="uni0008" 
d="M274 592q0 -41 -29 -70t-71 -29q-39 0 -70 29q-28 29 -28 70t28 70q31 29 70 29q41 0 70 -29q30 -30 30 -70zM222 592q0 20 -13 33q-16 14 -35 14t-33 -14q-13 -13 -13 -33t13 -33q14 -14 33 -14q20 0 34 14t14 33z" />
    <glyph glyph-name="controlLF" unicode="&#xa;" 
d="M409 690q-35 -38 -57 -60l-40 -40t-37 -38t-40 -44h-63l120 182h117zM81 508h-62l120 182h118z" />
    <glyph glyph-name="controlVT" 
d="M198 -183q-46 0 -75 25q-33 27 -33 72q0 17 4.5 33t15.5 30q22 30 62 46h71q-28 -23 -39 -34.5t-21 -22.5q-16 -20 -16 -37q0 -23 13 -33q9 -5 18.5 -8.5t21.5 -3.5l31 2v-62z" />
    <glyph glyph-name="controlFF" 
d="M210 499h-71l-125 190h67l93 -103l95 103h67z" />
    <glyph glyph-name="controlCR" unicode="&#xd;" horiz-adv-x="197" 
d="M62 -13v475h73v-475h-73z" />
    <glyph glyph-name="controlEM" horiz-adv-x="142" 
d="M-166 -40h-70l543 744h71z" />
    <glyph glyph-name="controlSUB" horiz-adv-x="503" 
d="M375 -13v475h73v-475h-73zM424 552h-48q-3 29 -10 44.5t-18 23.5q-22 19 -69 19t-72 -30q-26 -31 -26 -96v-51h94v-64h-94v-411h-73v410h-83v64h83v52q0 44 11 79t35 61q49 51 127 51q67 0 113 -32q46 -30 55 -119z" />
    <glyph glyph-name="controlFS" horiz-adv-x="492" 
d="M89 -13v246l-121 -99v84l121 99v378h78v-315l167 136v-84l-167 -136v-239h337v-70h-415z" />
    <glyph glyph-name="controlGS" horiz-adv-x="197" 
d="M134 322v-335h-73v274l-97 -81v81l97 81v353h73v-292l100 83v-81z" />
    <glyph glyph-name="controlRS" horiz-adv-x="667" 
d="M373 732h-71l-125 190h67l93 -103l95 103h67zM25 -13l-10 31l499 607h-474v70h593l9 -35l-499 -603h501v-70h-619z" />
    <glyph glyph-name="controlUS" horiz-adv-x="416" 
d="M246 499h-71l-125 190h67l93 -103l95 103h67zM125 57h283v-70h-392l-10 30l286 375h-268v70h377l8 -31z" />
    <glyph glyph-name="space" unicode=" " horiz-adv-x="292" 
 />
    <glyph glyph-name="exclam" unicode="!" horiz-adv-x="186" 
d="M120 179h-55l-18 516h91zM48 -13v123h90v-123h-90z" />
    <glyph glyph-name="quotedbl" unicode="&#x22;" horiz-adv-x="292" 
d="M257 540l-10 -103h-65l-13 133v127h54l37 -57zM120 540l-10 -103h-65l-13 133v127h54l37 -57z" />
    <glyph glyph-name="numbersign" unicode="#" horiz-adv-x="693" 
d="M469 198l-43 -211h-73l43 211h-162l-43 -211h-73l43 210h-80v71h95l34 166h-129v71h144l42 206h73l-42 -206h162l42 206h73l-42 -205h79v-71h-94l-34 -166h128v-71h-143zM283 435l-34 -167h162l34 167h-162z" />
    <glyph glyph-name="dollar" unicode="$" horiz-adv-x="547" 
d="M503 165q0 -78 -68 -134q-54 -43 -124 -52v-109h-73v109q-52 4 -97 24q-29 13 -54 28t-45 35v85q44 -33 74.5 -51t59.5 -29q58 -23 101 -23q64 0 107 35q43 34 43 81q0 50 -42 79q-44 29 -139 58q-101 29 -149 67q-50 41 -50 120q0 76 66 132q53 43 124 52l1 82h73
l-1 -82q44 -4 79 -18q25 -11 45 -22t39 -26v-87q-30 24 -52 37.5t-45 24.5t-49 16.5t-58 5.5q-60 0 -104 -33q-41 -31 -41 -76t34 -69q20 -13 50.5 -26.5t73.5 -27.5q119 -36 169 -80q52 -43 52 -126z" />
    <glyph glyph-name="percent" unicode="%" horiz-adv-x="733" 
d="M371 531q0 -71 -51 -122q-52 -52 -123 -52q-70 0 -123 51q-50 52 -50 123q0 72 51 122q53 51 122 51q72 0 123 -51t51 -122zM119 -24h-82l569 724h83zM710 147q0 -35 -12.5 -65.5t-38.5 -55.5q-53 -51 -124 -51q-70 0 -121 51q-52 52 -52 121q0 72 51 122q53 51 122 51
q72 0 123 -51q52 -52 52 -122zM303 529q0 45 -31 75q-30 32 -73 32q-45 0 -76 -31t-31 -73q0 -44 31 -75q32 -32 75 -32t73 31q32 32 32 73zM642 145q0 44 -31 75q-30 32 -74 32q-42 0 -75 -31q-32 -31 -32 -73t31 -73q32 -32 75 -32t75 30q31 30 31 72z" />
    <glyph glyph-name="ampersand" unicode="&#x26;" horiz-adv-x="646" 
d="M539 -13l-99 103q-41 -47 -88 -75q-65 -37 -146 -37q-94 0 -142 54q-48 52 -48 122q0 75 53 134q44 49 108 77l-9 9q-14 15 -24.5 30t-20.5 32q-23 41 -23 87q0 66 52 112q52 47 119 47q33 0 61 -10t53 -30q51 -42 51 -113q0 -70 -50 -122q-37 -37 -86 -63l132 -139
q7 11 13 21t11 20q11 20 22 46t23 61h82q-14 -43 -27 -73.5t-27 -59.5q-10 -20 -21 -37.5t-22 -33.5l154 -162h-101zM362 524q0 38 -26 59q-28 25 -64 25q-35 0 -68 -24q-28 -21 -28 -60q0 -29 19 -61q9 -15 20 -28.5t24 -26.5q1 -2 4.5 -5t4.5 -4q55 24 80 51q34 34 34 74z
M230 310q-56 -25 -94 -60t-38 -87q0 -55 31 -83q33 -28 86 -28q54 0 98 26q19 11 37.5 27.5t37.5 38.5z" />
    <glyph glyph-name="quotesingle" unicode="'" horiz-adv-x="233" 
d="M159 540l-10 -103h-65l-13 133v127h54l37 -57z" />
    <glyph glyph-name="parenleft" unicode="(" 
d="M249 -233q-38 35 -71.5 80.5t-65.5 104.5q-65 119 -65 279t64 278q63 117 138 186h89q-56 -49 -92 -97t-65 -107q-58 -118 -58 -260q0 -145 57 -260q29 -59 65 -107t93 -97h-89z" />
    <glyph glyph-name="parenright" unicode=")" 
d="M303 231q0 -160 -64 -278q-32 -59 -66.5 -105t-73.5 -81h-89q28 24 51.5 48t42.5 49t35 51.5t30 55.5q58 115 58 260t-58 260q-29 58 -65.5 106.5t-93.5 97.5h89q39 -35 73.5 -80.5t66.5 -104.5q64 -118 64 -279z" />
    <glyph glyph-name="asterisk" unicode="*" horiz-adv-x="492" 
d="M413 345q-16 13 -27.5 22t-22 16t-20 13t-21.5 14q-19 11 -50 31q1 -29 2.5 -49.5t2.5 -38.5t3 -36.5t5 -44.5h-78q3 27 5 45.5t3.5 36.5t2 38t2.5 49q-31 -20 -50 -31q-12 -8 -21.5 -14t-20 -13t-22 -16t-27.5 -22l-39 70q25 10 42 17.5t33 15.5l34 17t44 23
q-26 13 -44.5 22.5t-34.5 17.5t-33 15.5t-41 17.5l39 70q16 -13 27.5 -22t22 -16t20 -13.5t21.5 -13.5q19 -11 50 -31q-2 29 -3 49.5t-2 38.5t-3 36.5t-5 44.5h78q-3 -27 -5 -45.5t-3.5 -36.5t-2.5 -38t-2 -49q31 20 50 31q12 7 21.5 13.5t20 13.5t22 16t27.5 22l39 -70
q-25 -10 -42 -17.5t-33 -15.5t-34 -17.5t-44 -22.5q26 -14 44 -23l34 -17t33 -15.5t42 -17.5z" />
    <glyph glyph-name="plus" unicode="+" horiz-adv-x="693" 
d="M381 319v-241h-69v240h-240v69h240v238h69v-237h240v-69h-240z" />
    <glyph glyph-name="comma" unicode="," horiz-adv-x="186" 
d="M140 17q0 -43 -19 -81q-6 -14 -16 -24.5t-21 -20.5q-6 -5 -14.5 -11.5t-29.5 -21.5v64q4 5 7.5 8.5t5.5 6.5q3 2 7 6.5t5 7.5q4 13 6 36h-21v123h90v-93v0z" />
    <glyph glyph-name="hyphen" unicode="-" horiz-adv-x="329" 
d="M33 240v62h262v-62h-262z" />
    <glyph glyph-name="period" unicode="." horiz-adv-x="186" 
d="M48 -13v124h89v-124h-89z" />
    <glyph glyph-name="slash" unicode="/" horiz-adv-x="295" 
d="M68 -22h-73l228 726h73z" />
    <glyph glyph-name="zero" unicode="0" horiz-adv-x="525" 
d="M494 338q0 -156 -61 -256q-63 -104 -171 -104q-109 0 -169 104q-61 100 -61 256v6q0 156 61 256q62 104 170 104t170 -104q61 -102 61 -256v-6zM417 345q0 63 -11.5 114.5t-33.5 92.5t-50 60t-60 19t-58.5 -18.5t-49.5 -60.5q-45 -83 -45 -207v-8q0 -124 44 -207
q44 -79 110 -79q32 0 59 18.5t49 60.5q46 84 46 207v8z" />
    <glyph glyph-name="one" unicode="1" horiz-adv-x="352" 
d="M218 -13v581l-138 -177l-53 54l191 250h77v-708h-77z" />
    <glyph glyph-name="two" unicode="2" horiz-adv-x="525" 
d="M49 -13v32q35 35 62.5 65.5t51.5 56.5q25 27 50 59t50 69q20 28 35 56.5t27 56.5q13 28 18.5 55t5.5 55q0 60 -40 99q-39 40 -100 40q-44 0 -79 -20q-18 -11 -37.5 -26t-51.5 -46v95q15 14 32 24.5t37 21.5q43 24 103 24q89 0 152 -61q61 -61 61 -150q0 -68 -33 -140
q-17 -36 -33.5 -64t-30.5 -48q-19 -26 -37 -52t-37 -51q-32 -39 -66 -78h302v-73h-442z" />
    <glyph glyph-name="three" unicode="3" horiz-adv-x="525" 
d="M455 192q0 -97 -61 -155q-62 -59 -158 -59q-25 0 -48.5 3.5t-46.5 9.5q-22 6 -39 12t-33 15v74q24 -11 40.5 -18t35.5 -12q38 -11 86 -11q65 0 107 37q41 38 41 96q0 63 -39 99q-20 18 -48.5 28.5t-66.5 10.5h-22v73h18q61 0 107 35q43 34 43 84q0 47 -39 82
q-41 35 -103 35q-50 0 -86 -17q-19 -9 -33.5 -17t-34.5 -22v78q11 9 25 16.5t33 15.5q43 19 103 19q92 0 150 -52q61 -52 61 -135q0 -51 -31 -97q-26 -37 -77 -58q49 -21 78 -57q38 -49 38 -113z" />
    <glyph glyph-name="four" unicode="4" horiz-adv-x="525" 
d="M406 251v-264h-76v263h-312v35l311 418h89l-273 -386h185v152h76v-152h94v-66h-94z" />
    <glyph glyph-name="five" unicode="5" horiz-adv-x="525" 
d="M459 212q0 -103 -64 -168q-65 -66 -165 -66q-58 0 -106 17q-23 8 -41 16.5t-34 17.5v90q25 -17 43.5 -27t41.5 -21q46 -20 93 -20q67 0 112 45t45 114q0 72 -47 114q-47 41 -130 41q-12 0 -23 -0.5t-22 -2.5t-23 -5t-34 -10v348h315v-72h-242v-190l45 2q54 3 96 -13
t75 -47q65 -61 65 -163z" />
    <glyph glyph-name="six" unicode="6" horiz-adv-x="525" 
d="M481 176q0 -86 -60 -141q-60 -57 -146 -57q-93 0 -156 66q-64 67 -64 189q0 148 90 270q44 60 95 110t114 95l46 -55q-67 -47 -115.5 -94.5t-84.5 -100.5q-37 -53 -53 -116q25 16 57 27q33 13 71 13q90 0 149 -57q57 -57 57 -149zM405 174q0 59 -37 96q-39 39 -97 39
q-54 0 -93 -24q-32 -19 -48 -35q-1 -5 -1 -11v-13q0 -84 42 -129q43 -46 101 -46q57 0 95 35q38 34 38 88z" />
    <glyph glyph-name="seven" unicode="7" horiz-adv-x="525" 
d="M177 -25l-66 29l279 618h-365v73h477z" />
    <glyph glyph-name="eight" unicode="8" horiz-adv-x="525" 
d="M470 187q0 -89 -60 -149t-148 -60q-84 0 -146 60q-60 61 -60 147q0 31 7 58t23 50q24 37 64 62q-41 32 -59 66q-21 42 -21 86q0 82 56 140q59 57 141 57q77 0 133 -58q56 -59 56 -136q0 -46 -19 -84q-10 -19 -24.5 -36.5t-34.5 -34.5q35 -22 61 -60q31 -48 31 -108z
M380 507q0 55 -33 88q-33 35 -84 35q-52 0 -85 -35q-32 -34 -32 -91q0 -47 34 -80q35 -35 83 -35q49 0 82 35q35 33 35 83zM394 185q0 55 -38 93q-38 39 -92 39q-57 0 -95 -38q-37 -37 -37 -95q0 -57 37 -94q39 -39 95 -39t92 39q38 38 38 95z" />
    <glyph glyph-name="nine" unicode="9" horiz-adv-x="525" 
d="M468 444q0 -118 -67 -231q-35 -59 -93 -117.5t-146 -121.5l-43 57q65 45 112.5 90t85.5 96q40 54 58 125q-6 -5 -15 -10.5t-18 -7.5q-23 -13 -47.5 -17.5t-50.5 -4.5q-87 0 -145 57q-59 56 -59 141q0 89 58 146q58 58 146 58q97 0 161 -66q63 -67 63 -194zM390 450
q0 49 -10 83t-29 55q-38 43 -105 43q-56 0 -92 -38q-38 -36 -38 -93q0 -51 38 -87q38 -38 92 -38q52 0 93 23q34 19 51 36v16z" />
    <glyph glyph-name="colon" unicode=":" horiz-adv-x="186" 
d="M48 339v124h89v-123zM48 -13v124h89v-124h-89z" />
    <glyph glyph-name="semicolon" unicode=";" horiz-adv-x="186" 
d="M50 339v124h89v-123zM140 17q0 -43 -19 -81q-6 -14 -16 -24.5t-21 -20.5q-6 -5 -14.5 -11.5t-29.5 -21.5v64q4 5 7.5 8.5t5.5 6.5q3 2 7 6.5t5 7.5q4 13 6 36h-21v123h90v-93z" />
    <glyph glyph-name="less" unicode="&#x3c;" horiz-adv-x="693" 
d="M72 322v58l549 231v-76l-444 -184l444 -184v-76z" />
    <glyph glyph-name="equal" unicode="=" horiz-adv-x="693" 
d="M72 437v70h549v-69zM72 195v70h549v-70h-549z" />
    <glyph glyph-name="greater" unicode="&#x3e;" horiz-adv-x="693" 
d="M72 91v76l443 184l-443 184v76l549 -231v-58z" />
    <glyph glyph-name="question" unicode="?" 
d="M348 552q6 -82 -45 -151q-44 -41 -98 -55q-1 -124 -3 -193h-55q-4 100 0 247q67 0 115 52t12 138q-60 66 -148 47q-6 0 -16.5 -4.5t-22 -10t-22 -11.5t-40.5 -27l-28 64q28 22 38.5 27t25.5 12.5t20 9.5q22 8 46 8q202 14 221 -153zM129 -13v123h90v-123h-90z" />
    <glyph glyph-name="at" unicode="@" horiz-adv-x="840" 
d="M740 97q-21 -39 -50 -66.5t-71 -50.5q-86 -51 -189 -51q-148 0 -241 103q-93 100 -93 237q0 133 95 234t232 101q130 0 214 -84t84 -198q-14 -235 -156 -265q-34 0 -50 47q-10 -10 -50 -28.5t-106 -18.5q-56 0 -107 47q-115 146 -25 308q56 76 150 77q96 -2 138 -54v39
h66v-341q12 2 42 41q49 62 49 150q0 44 -16 81t-45 69q-75 80 -186 80q-114 0 -196 -84q-82 -83 -82 -205q0 -126 85 -205q87 -81 192 -81q87 0 157 35q35 18 59.5 38t41.5 45h58zM515 298l-1 72q-36 70 -141 67q-56 0 -95 -60q-22 -47 -26 -92q-3 -84 51 -142
q28 -29 57 -29q116 0 156 66q-2 3 -1 118z" />
    <glyph glyph-name="A" unicode="A" horiz-adv-x="700" 
d="M617 -13l-108 237h-317l-108 -237h-83l327 713h45l325 -713h-81zM350 571l-127 -278h254z" />
    <glyph glyph-name="B" unicode="B" horiz-adv-x="558" 
d="M520 185q0 -94 -66 -146q-65 -52 -176 -52h-211v708h160q108 0 170 -49q64 -52 64 -142q0 -43 -20 -80q-20 -38 -62 -65q56 -16 92 -50q49 -48 49 -124zM379 499q0 65 -41 95q-43 32 -129 32h-64v-248h67q82 0 125 31q42 31 42 90zM439 180q0 66 -46 97q-24 16 -59 24.5
t-83 8.5h-106v-254h123q80 0 127 33q44 32 44 91z" />
    <glyph glyph-name="C" unicode="C" horiz-adv-x="711" 
d="M678 49q-29 -17 -59 -29t-62 -22q-68 -20 -126 -20q-167 0 -275 102q-109 102 -109 261q0 156 109 259q108 104 272 104q56 0 119 -16q33 -8 62.5 -19t60.5 -27v-89q-38 23 -68 35.5t-61 22.5q-57 19 -122 19q-63 0 -114 -21t-93 -62q-83 -83 -83 -206q0 -129 81 -208
q83 -81 212 -81q72 0 131 22q31 11 60 24.5t65 33.5v-83v0z" />
    <glyph glyph-name="D" unicode="D" horiz-adv-x="777" 
d="M713 340q0 -155 -99 -254t-273 -99h-263v708h255q174 0 277 -95q103 -96 103 -260zM631 340q0 128 -82 207t-220 79h-173v-570h170q138 0 222 78q83 77 83 206z" />
    <glyph glyph-name="E" unicode="E" horiz-adv-x="515" 
d="M67 -13v708h398v-69h-320v-248h220v-69h-220v-252h327v-70h-405z" />
    <glyph glyph-name="F" unicode="F" horiz-adv-x="460" 
d="M137 626v-234h201v-69h-201v-336h-78v708h378v-69h-300z" />
    <glyph glyph-name="G" unicode="G" horiz-adv-x="755" 
d="M694 41q-29 -15 -57.5 -26t-60.5 -19t-66 -13t-69 -5q-164 0 -274 104q-110 105 -110 261q0 153 107 257q109 104 267 104q40 0 76.5 -5.5t70.5 -16.5t59 -20.5t45 -21.5v-89q-41 24 -71 37.5t-60 22.5t-60 14t-60 5q-124 0 -209 -82q-83 -81 -83 -206q0 -132 84 -210
q43 -39 98.5 -59.5t126.5 -20.5q57 0 102 13q22 6 39 12t28 13v163h-144v70h221v-282v0z" />
    <glyph glyph-name="H" unicode="H" horiz-adv-x="755" 
d="M592 -13v324h-429v-324h-78v708h78v-316h429v316h78v-708h-78z" />
    <glyph glyph-name="I" unicode="I" horiz-adv-x="218" 
d="M71 -13v708h77v-708h-77z" />
    <glyph glyph-name="J" unicode="J" horiz-adv-x="218" 
d="M149 -7q0 -50 -10 -88.5t-33 -64.5q-22 -25 -50 -39t-63 -12l-44 2l-8 76l47 -5q40 0 60 33q11 19 17 46t6 63v691h78v-702v0z" />
    <glyph glyph-name="K" unicode="K" horiz-adv-x="566" 
d="M475 -13l-339 326v-326h-78v708h78v-322l309 322h101l-337 -353l370 -355h-104z" />
    <glyph glyph-name="L" unicode="L" horiz-adv-x="492" 
d="M58 -13v708h78v-638h337v-70h-415z" />
    <glyph glyph-name="M" unicode="M" horiz-adv-x="820" 
d="M657 -13v585l-247 -306l-247 306v-585h-78v708h71l254 -310l253 310h72v-708h-78z" />
    <glyph glyph-name="N" unicode="N" horiz-adv-x="810" 
d="M662 -13l-499 576v-576h-78v708h63q68 -81 132 -156t130 -148q60 -66 119 -134t119 -139v577h78v-708h-64z" />
    <glyph glyph-name="O" unicode="O" horiz-adv-x="864" 
d="M806 341q0 -155 -108 -258q-108 -105 -266 -105t-265 104q-54 52 -81 117t-27 142q0 155 107 258q108 105 266 105q159 0 266 -104q108 -104 108 -259zM724 341q0 118 -86 204q-84 85 -206 85q-121 0 -206 -85t-85 -204q0 -120 84 -204q85 -85 207 -85t206 85
q86 86 86 204z" />
    <glyph glyph-name="P" unicode="P" horiz-adv-x="536" 
d="M499 500q0 -93 -63 -144q-62 -49 -171 -49h-123v-320h-78v708h206q107 0 168 -49q61 -51 61 -146zM418 501q0 58 -39 90q-41 35 -112 35h-125v-251h119q76 0 117 33q40 31 40 93z" />
    <glyph glyph-name="Q" unicode="Q" horiz-adv-x="864" 
d="M806 341q0 -77 -27 -142t-81 -117q-81 -78 -195 -96q17 -11 34.5 -20t37.5 -17q16 -7 37.5 -11.5t42.5 -8t37 -5t20 -2.5l6 -78q-32 0 -69 8.5t-86 25.5q-94 32 -174 103q-136 15 -223 101q-107 104 -107 259t107 258q108 105 266 105q159 0 266 -104q108 -105 108 -259z
M724 341q0 118 -86 204q-84 85 -206 85q-121 0 -206 -85t-85 -204q0 -120 84 -204q85 -85 207 -85t206 85q86 86 86 204z" />
    <glyph glyph-name="R" unicode="R" horiz-adv-x="602" 
d="M526 -13l-124 193q-18 29 -35 53.5t-35 44.5q-16 17 -39.5 27t-56.5 10h-92v-328h-78v708h185q56 0 100 -11.5t76 -36.5q65 -50 65 -143q0 -70 -42 -115q-35 -36 -76 -52q11 -8 22 -20t23 -29q16 -22 30 -43l28 -42l141 -216h-92zM410 505q0 59 -41 88q-44 33 -119 33
h-106v-243h101q80 0 123 32q42 30 42 90z" />
    <glyph glyph-name="S" unicode="S" horiz-adv-x="492" 
d="M450 173q0 -80 -61 -137q-61 -58 -144 -58q-62 0 -113 24q-25 11 -44.5 21t-34.5 22v93q40 -30 64.5 -45t44.5 -24q39 -17 74 -17q56 0 95 36q38 35 38 88q0 55 -35 84q-40 32 -120 60q-43 14 -75 32.5t-52 38.5q-43 43 -43 122q0 78 61 134q61 57 146 57q60 0 107 -18
q44 -17 64 -31l2 -87q-26 15 -44.5 24.5t-38.5 19.5q-38 18 -84 18q-29 0 -51.5 -8.5t-41.5 -25.5q-38 -35 -38 -81q0 -49 29 -75q32 -27 108 -55q52 -19 89 -39.5t57 -43.5q41 -45 41 -129z" />
    <glyph glyph-name="T" unicode="T" horiz-adv-x="602" 
d="M340 626v-639h-78v638h-256v70h590v-69h-256z" />
    <glyph glyph-name="U" unicode="U" horiz-adv-x="733" 
d="M665 296q0 -138 -83 -227q-82 -91 -215 -91q-131 0 -215 87q-83 87 -83 226v404h78v-400q0 -113 59 -178q60 -65 162 -65q100 0 159 67q29 34 44.5 78.5t15.5 102.5v395h78v-399v0z" />
    <glyph glyph-name="V" unicode="V" horiz-adv-x="624" 
d="M328 -20h-32l-297 715h80l233 -558l232 558h82z" />
    <glyph glyph-name="W" unicode="W" horiz-adv-x="1083" 
d="M793 -20h-30l-221 555l-220 -555h-31l-284 715h81l217 -545l221 545h32l220 -545l218 545h79z" />
    <glyph glyph-name="X" unicode="X" horiz-adv-x="742" 
d="M641 -13l-270 306l-270 -306h-102l320 362l-304 346h102l254 -288l253 288h102l-304 -346l322 -362h-103z" />
    <glyph glyph-name="Y" unicode="Y" horiz-adv-x="639" 
d="M360 361v-374h-78v374l-279 334h96l223 -264l221 264h96z" />
    <glyph glyph-name="Z" unicode="Z" horiz-adv-x="667" 
d="M25 -13l-10 31l499 607h-474v70h593l9 -35l-499 -603h501v-70h-619z" />
    <glyph glyph-name="bracketleft" unicode="[" horiz-adv-x="317" 
d="M49 -233v928h251v-72h-178v-783h178v-73h-251z" />
    <glyph glyph-name="backslash" unicode="\" horiz-adv-x="295" 
d="M227 -22l-226 726h72l227 -726h-73z" />
    <glyph glyph-name="bracketright" unicode="]" horiz-adv-x="317" 
d="M18 -233v72h178v783h-178v73h251v-928h-251z" />
    <glyph glyph-name="asciicircum" unicode="^" horiz-adv-x="693" 
d="M534 384l-188 224l-186 -224l-50 45l227 272h18l229 -272z" />
    <glyph glyph-name="underscore" unicode="_" horiz-adv-x="525" 
d="M-6 -279v75h538v-75h-538z" />
    <glyph glyph-name="grave" unicode="`" 
d="M235 508l-178 182h118l120 -181z" />
    <glyph glyph-name="a" unicode="a" horiz-adv-x="536" 
d="M405 -15v26q-12 -5 -25 -11.5t-26 -10.5q-39 -11 -80 -11q-101 0 -165 66q-65 66 -65 168q0 113 66 185q69 74 173 74q30 0 61 -11q33 -11 62 -27l23 -10l48 -25l1 -413h-73zM406 359q-7 5 -17 12.5t-24 13.5q-33 14 -71 14q-76 0 -124 -53q-50 -52 -50 -133
q0 -76 44 -120q23 -23 51.5 -34.5t66.5 -11.5q45 0 75 12q14 5 26 13.5t23 14.5v272z" />
    <glyph glyph-name="b" unicode="b" horiz-adv-x="536" 
d="M491 236q0 -112 -72 -186q-72 -72 -196 -72q-44 0 -83 10q-21 5 -40.5 11.5t-41.5 17.5l-2 678h74v-284q14 14 28.5 24t29.5 17q22 9 43.5 14t44.5 5q98 0 156 -65q30 -32 44.5 -75t14.5 -95zM416 234q0 75 -41 124q-39 48 -100 48q-50 0 -89 -28q-36 -27 -56 -50v-260
q7 -4 31 -10q30 -8 69 -8q79 0 132 53q54 52 54 131z" />
    <glyph glyph-name="c" unicode="c" horiz-adv-x="438" 
d="M407 5q-14 -5 -26.5 -8.5t-29.5 -8.5q-19 -5 -38 -7.5t-39 -2.5q-110 0 -174 67q-63 67 -63 179q0 102 62 173q65 74 170 74q37 0 65 -7q15 -3 30 -7.5t35 -11.5v-82q-23 11 -37.5 16t-28.5 10q-28 10 -63 10q-71 0 -113 -48q-44 -50 -44 -127q0 -80 44 -127
q21 -23 50.5 -35t68.5 -12q36 0 66 9q15 5 29.5 10t35.5 14v-78v0z" />
    <glyph glyph-name="d" unicode="d" horiz-adv-x="536" 
d="M480 83q2 -3 -38 -41q-10 -10 -28 -22q-35 -20 -57 -28q-8 -3 -32 -11q-19 -3 -38 -3q-102 0 -171 71q-70 71 -70 175q0 109 69 178q34 35 79 52t99 17q32 0 62 -9q15 -5 28 -9.5t24 -10.5v253h73v-612zM406 361q-8 6 -19 11.5l-25 12.5q-31 14 -71 14q-75 0 -121 -49
q-48 -48 -48 -126q0 -74 49 -123q51 -51 126 -51q24 0 42.5 4t32.5 11q12 7 20.5 14.5t13.5 11.5v270z" />
    <glyph glyph-name="e" unicode="e" horiz-adv-x="503" 
d="M113 229v-18q3 -65 49 -111q25 -24 55 -37t68 -13q51 0 92 23q22 12 40 25t43 36v-89q-17 -13 -34.5 -24t-38.5 -20q-49 -23 -106 -23q-106 0 -175 71q-68 73 -68 182q0 101 61 169q62 71 158 71q93 0 153 -66q29 -32 44 -74.5t15 -101.5h-356zM381 287q-5 24 -14 45
t-23 35q-15 15 -36 23.5t-50 8.5q-66 0 -105 -49q-9 -11 -16.5 -28t-12.5 -34h257v-1z" />
    <glyph glyph-name="f" unicode="f" horiz-adv-x="252" 
d="M325 610q-15 5 -24.5 7.5t-20.5 6.5q-26 8 -52 8q-46 0 -69 -29q-11 -14 -17.5 -37t-6.5 -58v-46h87v-64h-87v-411h-73v410h-83v64h83v62q0 78 47 130q49 51 122 51q16 0 29.5 -2.5t26.5 -6.5q14 -5 22.5 -8t15.5 -8v-69v0z" />
    <glyph glyph-name="g" unicode="g" horiz-adv-x="536" 
d="M479 -92q0 -1 -2.5 -14.5t-12.5 -35t-30.5 -41.5t-56.5 -34.5t-90 -14.5q-29 0 -60 5t-55 25t-42 48.5t-33 73.5l75 2q18 -38 45 -60.5t70 -22.5q55 0 86.5 18t31.5 41v108q-12 -5 -25 -9l-26 -8q-41 -11 -81 -11q-99 0 -165 66q-64 67 -64 168q0 115 66 185
q68 74 173 74q31 1 61 -11q34 -7 96 -46q21 -15 38 -33v-472zM406 359q-7 5 -17 12.5t-24 13.5q-16 7 -33.5 10.5t-38.5 3.5q-74 0 -124 -53q-49 -52 -49 -133q0 -76 44 -120q23 -23 51.5 -34.5t66.5 -11.5q45 0 75 12q14 5 26 11t23 12v277z" />
    <glyph glyph-name="h" unicode="h" horiz-adv-x="515" 
d="M380 -13v269q0 35 -7.5 62t-21.5 44q-28 37 -82 37q-50 0 -81 -26q-16 -13 -29 -28t-24 -32v-326h-73v708h73v-293q23 32 49 47q39 22 85 22q83 0 134 -54q26 -27 38 -64t12 -82v-284h-73z" />
    <glyph glyph-name="i" unicode="i" horiz-adv-x="197" 
d="M62 587v108h73v-107zM62 -13v475h73v-475h-73z" />
    <glyph glyph-name="j" unicode="j" horiz-adv-x="197" 
d="M63 587v108h73v-107zM136 -32q0 -59 -11 -100.5t-34 -64.5q-23 -22 -48.5 -34t-58.5 -12l-21 66h21q37 0 58 27q21 25 21 103v509h73v-494z" />
    <glyph glyph-name="k" unicode="k" horiz-adv-x="486" 
d="M415 -13l-298 249l262 226h101l-260 -226l299 -249h-104zM68 -13v708h73v-459v-249h-73z" />
    <glyph glyph-name="l" unicode="l" horiz-adv-x="197" 
d="M62 -13v708h73v-708h-73z" />
    <glyph glyph-name="m" unicode="m" horiz-adv-x="810" 
d="M668 -13v269q0 71 -28 106q-29 37 -79 37q-38 0 -68 -31q-30 -30 -52 -66v-315h-73v269q0 70 -26 107q-27 36 -77 36q-46 0 -74 -25t-51 -62v-325h-73q-1 0 -1 326q7 49 39 83q49 67 166 75h12q20 0 40 -6.5t39 -17.5q32 -22 57 -71q9 14 21.5 28t26.5 28q42 39 105 39
h12q70 0 115 -57q42 -57 42 -143v-284h-73z" />
    <glyph glyph-name="n" unicode="n" horiz-adv-x="515" 
d="M380 -13v269q0 35 -7.5 62t-21.5 44q-28 37 -82 37q-48 8 -80 -18q-42 -27 -54 -68v-326h-73l-1 312q-3 16 24 78q27 30 25 32q50 57 159 62q83 0 134 -54q26 -27 38 -64t12 -82v-284h-73z" />
    <glyph glyph-name="o" unicode="o" horiz-adv-x="569" 
d="M526 224q0 -102 -68 -175q-70 -71 -173 -71q-104 0 -172 71q-70 73 -70 175q0 104 69 176q68 71 173 71q103 0 172 -71q69 -72 69 -176zM450 224q0 73 -48 123q-49 52 -117 52q-69 0 -117 -51q-49 -50 -49 -124q0 -73 49 -122q49 -52 117 -52q67 0 117 51q48 51 48 123z
" />
    <glyph glyph-name="p" unicode="p" horiz-adv-x="536" 
d="M509 225q0 -99 -68 -172q-68 -75 -163 -75q-42 0 -76 9q-13 3 -25.5 8t-25.5 11v-249h-73v638l74 44q11 5 25.5 11t31.5 11q15 5 30 7.5t29 2.5q105 0 173 -69t68 -177zM431 224q0 76 -50 124q-50 51 -125 51q-21 0 -37.5 -6t-30.5 -11q-12 -5 -21.5 -8.5t-15.5 -7.5
v-287q8 -5 18.5 -8.5t22.5 -8.5q15 -5 32.5 -8.5t37.5 -3.5q77 0 122 49q47 49 47 125z" />
    <glyph glyph-name="q" unicode="q" horiz-adv-x="536" 
d="M405 -243v249q-12 -5 -25 -9l-26 -8q-39 -11 -80 -11q-101 0 -165 66q-65 66 -65 168q0 113 66 185q69 74 173 74q30 0 61 -11q33 -11 62 -27l71 -37l1 -639h-73zM406 359q-7 5 -17 12.5t-24 13.5q-33 14 -71 14q-76 0 -124 -53q-50 -52 -50 -133q0 -76 44 -120
q23 -23 51.5 -34.5t66.5 -11.5q45 0 75 12q14 5 26 11t23 12v277z" />
    <glyph glyph-name="r" unicode="r" horiz-adv-x="371" 
d="M352 341q-20 19 -32.5 29t-23.5 16q-19 13 -35 13q-35 0 -75 -43q-38 -44 -58 -76v-293h-73v321q76 82 92.5 102.5t37.5 32.5q23 20 46 24t44 4q20 0 37.5 -7t34.5 -19q31 -22 46 -40z" />
    <glyph glyph-name="s" unicode="s" horiz-adv-x="372" 
d="M342 116q0 -57 -46 -98q-45 -41 -112 -41q-53 0 -90 17q-19 8 -32.5 15.5t-26.5 15.5v78q26 -17 44 -25.5t36 -14.5q36 -13 69 -13q39 0 64 19q23 17 23 48q0 21 -17 38q-20 19 -92 45q-29 11 -51.5 23.5t-38.5 28.5q-34 33 -34 85q0 58 48 96q23 18 49 28t56 10
q44 0 81 -14q34 -13 56 -32v-82q-26 20 -42 29.5t-31 16.5q-31 13 -60 13q-22 0 -37.5 -5t-26.5 -14q-22 -21 -22 -45q0 -26 22 -42q13 -9 30 -17.5t40 -16.5q61 -21 99 -52q42 -33 42 -94z" />
    <glyph glyph-name="t" unicode="t" horiz-adv-x="317" 
d="M322 5q-19 -8 -31.5 -12.5t-23.5 -7.5t-23.5 -5t-26.5 -2q-54 0 -85 30q-17 16 -24.5 37t-7.5 46v306h-121v64h121v122l41 28h32v-149h126v-64h-126v-274q0 -27 2.5 -41.5t7.5 -19.5q4 -5 15 -9t32 -4q16 0 34 6q10 3 21.5 8t36.5 16v-75v0z" />
    <glyph glyph-name="u" unicode="u" horiz-adv-x="515" 
d="M455 164q-6 -75 -22 -96q-28 -44 -67 -65q-39 -22 -114 -25q-90 0 -140 50t-50 144v290h73v-280q0 -64 34 -99.5t86 -35.5q61 1 91 27q36 36 34 64v324h73l2 -298v0z" />
    <glyph glyph-name="v" unicode="v" horiz-adv-x="448" 
d="M253 -22h-46l-215 484h76l161 -360l154 360h74z" />
    <glyph glyph-name="w" unicode="w" horiz-adv-x="743" 
d="M540 -22h-40l-129 343l-130 -343h-39l-203 484h74l144 -345l133 345h40l133 -346l147 346h74z" />
    <glyph glyph-name="x" unicode="x" horiz-adv-x="539" 
d="M323 230l216 -243h-95l-170 191l-171 -191h-95l216 243l-217 232h96l171 -181l170 181h97z" />
    <glyph glyph-name="y" unicode="y" horiz-adv-x="457" 
d="M113 -243h-77l163 329l-196 376h80l154 -299l146 299h77z" />
    <glyph glyph-name="z" unicode="z" horiz-adv-x="416" 
d="M125 57h283v-70h-392l-10 30l286 375h-268v70h377l8 -31z" />
    <glyph glyph-name="braceleft" unicode="{" 
d="M281 -233q-38 0 -66.5 12t-45.5 38q-31 46 -31 113v145q0 52 -21 81q-9 13 -26 21t-46 13v82q29 5 46 13t26 21q21 29 21 81v145q0 67 30 113q17 26 46 38t67 12h26v-79h-29q-27 0 -43 -16q-7 -7 -11.5 -21.5t-4.5 -40.5v-126q0 -82 -29 -129q-22 -34 -55 -52
q32 -16 55 -51q15 -24 22 -56.5t7 -73.5v-126q0 -26 4 -40.5t11 -20.5q18 -16 44 -16h29v-80h-26z" />
    <glyph glyph-name="bar" unicode="|" horiz-adv-x="233" 
d="M80 -295v1025h73v-1025h-73z" />
    <glyph glyph-name="braceright" unicode="}" 
d="M306 190q-30 -5 -46.5 -13t-26.5 -21q-10 -14 -15.5 -34t-5.5 -47v-145q0 -32 -8 -61t-22 -52q-17 -26 -46.5 -38t-67.5 -12h-25v79h28q27 0 43 16q8 7 12.5 21.5t4.5 40.5v126q0 41 7 73.5t22 55.5q22 36 55 52q-33 16 -54 51q-16 24 -23 56.5t-7 73.5v126
q0 26 -4.5 40.5t-11.5 20.5q-16 16 -44 16h-28v80h25q79 0 113 -50q31 -48 31 -113v-145q0 -53 20 -81q10 -13 27 -21t47 -13v-82v0z" />
    <glyph glyph-name="asciitilde" unicode="~" horiz-adv-x="693" 
d="M621 331q-8 -6 -20.5 -14.5t-32.5 -21.5q-22 -14 -45.5 -22t-49.5 -8q-51 0 -135 41q-84 39 -117 39q-29 0 -68 -22q-19 -11 -37 -23.5t-45 -35.5v87q8 6 20.5 14.5t32.5 21.5q22 14 45.5 22t50.5 8q51 0 135 -41q84 -39 117 -39q28 0 64 22q18 11 37 23.5t50 33.5z" />
    <glyph glyph-name="quotesinglbase" unicode="&#x201a;" horiz-adv-x="186" 
d="M138 28q0 -64 -24 -103q-11 -17 -25 -32.5t-41 -32.5v62q6 8 9.5 15.5t5.5 15.5q5 13 5 34h-20v123h90v-82v0z" />
    <glyph glyph-name="florin" unicode="&#x192;" horiz-adv-x="584" 
d="M555 650q-17 5 -26.5 7t-18.5 4q-18 3 -40 3q-15 0 -25 -4t-17 -11q-8 -8 -15 -31.5t-16 -62.5q-1 -2 -2.5 -10.5t-2.5 -10.5h109l-17 -72h-107l-124 -569q-6 -29 -18 -50t-29 -35q-34 -31 -94 -31q-17 0 -31.5 2t-26.5 5q-11 3 -21 5.5t-24 6.5l17 73q18 -5 28.5 -6.5
t19.5 -3.5q8 -2 17 -3t19 -1q29 0 44 17q3 3 6 9t6 17q4 12 7.5 28.5t8.5 37.5l108 497h-82l14 72h82l16 69q9 38 21 65.5t32 44.5q40 31 92 31q25 0 52 -6q14 -2 25.5 -6t25.5 -9z" />
    <glyph glyph-name="quotedblbase" unicode="&#x201e;" horiz-adv-x="416" 
d="M363 28q0 -63 -25 -104q-12 -19 -31 -33t-44 -31v62q5 6 8 9.5t6 6.5q5 5 7 8q5 5 5 8q2 5 3 13.5t1 19.5h-20v123h90v-82zM148 28q0 -63 -25 -104q-12 -19 -31 -33t-44 -31v62q5 6 8 9.5t6 6.5q5 5 7 8q5 5 5 8q2 5 3 13.5t1 19.5h-20v123h90v-82z" />
    <glyph glyph-name="ellipsis" unicode="&#x2026;" horiz-adv-x="1050" 
d="M813 -13v124h89v-124h-89zM480 -13v124h89v-124h-89zM147 -13v124h89v-124h-89z" />
    <glyph glyph-name="dagger" unicode="&#x2020;" horiz-adv-x="515" 
d="M296 354l6 -597h-91l6 597h-192v79h192l-3 271h85l-3 -271h192v-79h-192z" />
    <glyph glyph-name="daggerdbl" unicode="&#x2021;" horiz-adv-x="503" 
d="M277 11l18 -254h-88l17 254l-199 -14v81l199 -14l-13 162l13 172l-199 -14v81l199 -14l-17 253h88l-18 -253l200 14v-81l-199 14l13 -172l-13 -162l199 14v-81z" />
    <glyph glyph-name="circumflex" unicode="&#x2c6;" 
d="M269 499l-95 103l-93 -103h-67l125 190h71l126 -189z" />
    <glyph glyph-name="perthousand" unicode="&#x2030;" horiz-adv-x="1105" 
d="M1077 147q0 -70 -51 -121t-123 -51q-69 0 -122 51q-50 50 -50 121q0 72 50 122q53 51 123 51q71 0 122 -51t51 -122zM380 531q0 -71 -51 -122q-52 -52 -123 -52q-69 0 -122 51q-51 51 -51 123t50 122q53 51 123 51q72 0 123 -51t51 -122zM118 -24h-83l570 725h81z
M708 147q0 -70 -51 -121t-123 -51q-69 0 -122 51q-50 50 -50 121q0 72 50 122q53 51 123 51q71 0 122 -51t51 -122zM1009 145q0 45 -31 75q-32 32 -73 32q-44 0 -75 -31t-31 -73q0 -44 30 -73q32 -32 76 -32q43 0 73 30q31 30 31 72zM312 529q0 45 -31 75q-32 32 -73 32
q-23 0 -41 -8t-34 -23q-32 -31 -32 -73q0 -44 31 -75q32 -32 75 -32t73 31q32 32 32 73zM640 145q0 45 -31 75q-32 32 -73 32q-44 0 -75 -31t-31 -73q0 -44 30 -73q32 -32 76 -32q43 0 73 30q31 30 31 72z" />
    <glyph glyph-name="Scaron" unicode="&#x160;" horiz-adv-x="492" 
d="M281 732h-71l-124 190h66l94 -103l94 103h67zM450 173q0 -80 -61 -137q-61 -58 -144 -58q-62 0 -113 24q-25 11 -44.5 21t-34.5 22v93q40 -30 64.5 -45t44.5 -24q39 -17 74 -17q56 0 95 36q38 35 38 88q0 55 -35 84q-40 32 -120 60q-43 14 -75 32.5t-52 38.5
q-43 43 -43 122q0 78 61 134q61 57 146 57q60 0 107 -18q44 -17 64 -31l2 -87q-26 15 -44.5 24.5t-38.5 19.5q-38 18 -84 18q-29 0 -51.5 -8.5t-41.5 -25.5q-38 -35 -38 -81q0 -49 29 -75q32 -27 108 -55q52 -19 89 -39.5t57 -43.5q41 -45 41 -129z" />
    <glyph glyph-name="guilsinglleft" unicode="&#x2039;" horiz-adv-x="295" 
d="M201 -7l-200 238l198 238h93l-197 -238l199 -238h-93z" />
    <glyph glyph-name="OE" unicode="&#x152;" horiz-adv-x="941" 
d="M421 -13q-159 0 -265 101q-106 102 -106 257q0 150 106 249q107 101 263 101h467v-69h-323v-248h314v-68l-314 -1v-252h330v-70h-472zM485 626h-56q-127 0 -212 -82q-42 -42 -63.5 -91.5t-21.5 -111.5q0 -122 85 -204q85 -80 215 -80h53v569z" />
    <glyph glyph-name="quoteleft" unicode="&#x2018;" horiz-adv-x="186" 
d="M145 645q-8 -11 -14 -16q-2 -2 -6 -8q-4 -4 -5 -7q-2 -6 -3 -14.5t-2 -19.5h20v-123h-90v82q0 64 24 103q13 19 32 33.5t44 31.5v-62v0z" />
    <glyph glyph-name="quoteright" unicode="&#x2019;" horiz-adv-x="186" 
d="M140 615q0 -32 -5.5 -57.5t-18.5 -45.5q-12 -19 -31 -33.5t-45 -31.5v62q5 5 8 9t6 7q5 5 7 8q4 4 5 7q2 6 3 14.5t2 19.5h-21v123h90v-82v0z" />
    <glyph glyph-name="quotedblleft" unicode="&#x201c;" horiz-adv-x="416" 
d="M370 645q-5 -5 -8 -9t-6 -7q-2 -2 -3.5 -4t-3.5 -4q-4 -4 -5 -7q-2 -6 -3 -14.5t-1 -19.5h20v-123h-90v82q0 64 24 103q12 19 31.5 33.5t44.5 31.5v-62zM151 645q-5 -5 -8 -9t-6 -7q-2 -2 -3.5 -4t-3.5 -4q-4 -4 -5 -7q-2 -6 -3 -14.5t-1 -19.5h20v-123h-90v82
q0 64 24 103q12 19 31.5 33.5t44.5 31.5v-62z" />
    <glyph glyph-name="quotedblright" unicode="&#x201d;" horiz-adv-x="416" 
d="M365 615q0 -64 -24 -103q-12 -19 -31.5 -33.5t-44.5 -31.5v62q4 5 7.5 9t6.5 7q2 2 3.5 4t3.5 4q4 4 4 7q5 13 5 34h-20v123h90v-82zM146 615q0 -64 -24 -103q-12 -19 -31.5 -33.5t-44.5 -31.5v62q4 5 7.5 9t6.5 7q2 2 3.5 4t3.5 4q4 4 4 7q5 13 5 34h-20v123h90v-82z
" />
    <glyph glyph-name="bullet" unicode="&#x2022;" horiz-adv-x="525" 
d="M397 341q0 -56 -39 -95q-40 -40 -95 -40q-56 0 -95 39q-40 40 -40 96t39 95q40 40 95 40q56 0 95 -39q40 -40 40 -96z" />
    <glyph glyph-name="endash" unicode="&#x2013;" horiz-adv-x="525" 
d="M-6 221v58h537v-57z" />
    <glyph glyph-name="emdash" unicode="&#x2014;" horiz-adv-x="1050" 
d="M6 221v58h1038v-57z" />
    <glyph glyph-name="tilde" unicode="&#x2dc;" 
d="M350 655q0 -31 -5.5 -51t-16.5 -36q-12 -17 -30.5 -25.5t-41.5 -8.5q-36 0 -94 26q-60 24 -76 24q-8 0 -19 -8q-4 -3 -7 -11t-5 -30h-56q0 31 5.5 51t16.5 36q13 18 31.5 26t41.5 8q35 0 93 -26q30 -12 48.5 -18t29.5 -6q8 0 17 8q4 3 7 11.5t7 29.5h54v0z" />
    <glyph glyph-name="scaron" unicode="&#x161;" horiz-adv-x="372" 
d="M221 499h-71l-125 190h67l94 -103l94 103h67zM344 116q0 -57 -46 -98q-45 -41 -111 -41q-55 0 -90 17q-19 8 -33 15.5t-27 15.5v78q26 -17 44 -25.5t36 -14.5q38 -13 70 -13q38 0 63 19q23 17 23 48q0 21 -17 38q-10 9 -32 20t-60 25q-58 21 -90 52q-34 33 -34 85
q0 58 48 96q23 18 49.5 28t56.5 10q44 0 80 -14q34 -13 56 -32v-82q-26 20 -41.5 29.5t-30.5 16.5q-15 6 -29.5 9.5t-30.5 3.5q-23 0 -38 -5t-26 -14q-23 -20 -23 -45q0 -26 22 -42q13 -9 30.5 -17.5t40.5 -16.5q59 -21 98 -52q42 -33 42 -94z" />
    <glyph glyph-name="guilsinglright" unicode="&#x203a;" horiz-adv-x="295" 
d="M94 -7h-94l200 238l-198 238h94l197 -238z" />
    <glyph glyph-name="oe" unicode="&#x153;" horiz-adv-x="875" 
d="M515 229v-18q3 -67 42 -112q43 -49 105 -49q42 0 77 22q19 13 35 26t41 37v-90q-15 -13 -31.5 -24t-37.5 -21q-46 -22 -96 -22q-59 0 -108 24q-44 21 -69 72q-14 -20 -32 -36t-39 -29q-56 -31 -125 -31q-96 0 -162 72q-65 71 -65 174q0 104 65 175q66 72 165 72
q70 0 117 -24q43 -22 74 -64q33 45 70 64q45 24 102 24q81 0 131 -66q25 -33 37.5 -75.5t12.5 -100.5h-309zM737 292q-7 49 -30 76q-26 31 -71 31q-54 0 -87 -48q-15 -21 -25 -58h213v-1zM438 224q0 74 -46 124q-47 51 -110 51q-65 0 -110 -50q-46 -52 -46 -125t46 -123
q46 -51 110 -51q65 0 110 50q46 52 46 124z" />
    <glyph glyph-name="Ydieresis" unicode="&#x178;" horiz-adv-x="612" 
d="M328 763v94h93v-93zM191 763v94h93v-94h-93zM345 361v-374h-78v374l-279 334h96l223 -264l221 263h96z" />
    <glyph glyph-name="exclamdown" unicode="&#xa1;" horiz-adv-x="186" 
d="M48 351v123h90v-122zM47 -234l18 516h55l18 -516h-91z" />
    <glyph glyph-name="cent" unicode="&#xa2;" horiz-adv-x="438" 
d="M357 455q8 -2 16 -4.5t18 -5.5v-82q-31 15 -54 22q-1 0 -1.5 0.5t-1.5 0.5l-117 -329q10 -3 22.5 -5t28.5 -2q36 0 66 9q15 5 29 10t36 14v-78q-14 -5 -26.5 -8.5t-30.5 -8.5t-37 -7.5t-39 -2.5q-46 0 -73 10l-67 -190h-71l76 216q-12 8 -21.5 15.5t-17.5 15.5
q-32 34 -47.5 79t-15.5 100q0 104 62 173q63 73 170 73h16q8 0 15 -1l64 182h71zM266 398h-9q-4 0 -9 -1q-61 -3 -100 -46q-43 -51 -43 -127q0 -72 34 -116q7 -9 19 -19z" />
    <glyph glyph-name="sterling" unicode="&#xa3;" horiz-adv-x="580" 
d="M492 629l-25 2q-33 2 -61 -11t-52 -39t-43 -58.5t-33 -71.5l-30 -84h101v-72h-123l-60 -228l85 5q20 2 42.5 -0.5t46.5 -6.5q11 -2 21 -3.5t18 -3.5q20 -3 32.5 -5t20.5 -2q14 0 25 2t20 5q11 4 25 9.5t40 19.5v-82l-24.5 -10.5t-24.5 -8.5q-30 -8 -62 -8q-11 0 -32 3
t-53 8q-30 5 -56.5 8t-49.5 3t-44 -1.5t-39 -3.5q-19 -3 -38.5 -6.5t-46.5 -8.5v44q7 6 17 41.5t28 102.5q28 106 38 126h-83v72h99l33 100q14 39 34 78.5t52 78.5q66 81 163 81l53 -11l38 -76z" />
    <glyph glyph-name="currency" unicode="&#xa4;" horiz-adv-x="711" 
d="M695 49q-29 -17 -58.5 -29t-61.5 -22q-69 -20 -126 -20q-166 0 -276 102q-59 55 -87 130h-73v65h56q-2 16 -3.5 32.5t-1.5 33.5q0 45 11 89h-62v65h85q13 29 32 55.5t43 49.5q110 104 273 104q56 0 119 -16q33 -8 62.5 -19t59.5 -27v-89q-38 23 -68 35.5t-60 22.5
q-58 19 -122 19q-63 0 -114 -21t-93 -62q-13 -12 -23 -24.5t-18 -26.5h473v-65h-503q-13 -40 -13 -90q0 -17 2 -33.5t4 -31.5h510v-65h-488q19 -45 54 -78q81 -81 212 -81q71 0 131 22q31 11 59.5 24.5t64.5 33.5v-83v0z" />
    <glyph glyph-name="yen" unicode="&#xa5;" horiz-adv-x="584" 
d="M379 375h170v-72h-206l-6 -4v-47h212v-72h-212v-193h-89v192h-216v72h190l26 35l-2 16h-214v72h175l-213 355h101l200 -342l196 342h100z" />
    <glyph glyph-name="brokenbar" unicode="&#xa6;" horiz-adv-x="233" 
d="M80 312v451h73v-450zM80 -263v451h73v-451h-73z" />
    <glyph glyph-name="section" unicode="&#xa7;" horiz-adv-x="416" 
d="M393 178q0 -37 -22 -78q-11 -22 -26.5 -41.5t-32.5 -36.5q21 -25 32 -51q7 -16 11 -33t4 -35q0 -69 -46 -108q-46 -38 -114 -38q-46 0 -88 28q-22 14 -35.5 39.5t-21.5 68.5h76q5 -23 11.5 -34.5t15.5 -18.5q21 -15 46 -15q30 0 57 20q13 10 19.5 22.5t6.5 32.5
q0 24 -19 56t-53 63l-92 83q-46 40 -73 85q-26 46 -26 96q0 40 24 84q22 39 57 72q-18 23 -31 51q-15 31 -15 68q0 69 45 108q47 38 114 38q45 0 87 -28q22 -14 36 -39t22 -69h-76q-5 23 -12 34.5t-16 18.5q-21 15 -46 15q-27 0 -55 -20q-26 -19 -26 -55q0 -28 17 -56
q19 -32 53 -63l93 -83q23 -20 41 -41.5t31 -43.5q27 -45 27 -96zM318 178q0 36 -17 62q-10 14 -17.5 25t-15.5 19l-117 106q-16 -15 -26 -28.5t-16 -24.5q-11 -25 -11 -52q0 -38 17 -62q9 -14 17 -25t16 -19l116 -106q31 30 42 53q12 27 12 52z" />
    <glyph glyph-name="dieresis" unicode="&#xa8;" 
d="M197 545v94h93v-93zM60 545v94h93v-94h-93z" />
    <glyph glyph-name="copyright" unicode="&#xa9;" horiz-adv-x="840" 
d="M805 356q0 -158 -113 -273q-113 -113 -272 -113q-158 0 -273 113q-112 113 -112 272q0 160 112 273q115 113 272 113q160 0 273 -113q113 -115 113 -272zM733 355q0 131 -92 221q-92 93 -221 93t-221 -92t-92 -221q0 -131 91 -221q93 -93 221 -93q131 0 221 92
q93 93 93 221zM601 278q-11 -40 -28 -66t-40 -45q-47 -38 -108 -38q-86 0 -145 65q-58 64 -58 164q0 90 56 151q58 63 151 63q57 0 100 -34q22 -17 38.5 -39.5t32.5 -57.5l-72 -19q-8 18 -17 33.5t-21 26.5q-26 24 -63 24q-61 0 -94 -41q-34 -41 -34 -102q0 -71 33 -119
q31 -46 90 -46q40 0 67 24q14 13 25 31t20 49z" />
    <glyph glyph-name="ordfeminine" unicode="&#xaa;" horiz-adv-x="295" 
d="M292 429q-7 -5 -11 -8t-9 -6l-6 -4t-7 -4q-10 -5 -20 -9t-20 -4q-8 0 -17 7q-8 6 -11 21q-12 -9 -29 -17q-14 -5 -26.5 -8.5t-26.5 -3.5q-20 0 -37 6t-31 17q-28 25 -28 57q0 40 25 64q24 24 56 35q11 3 20.5 5.5t20.5 4.5q18 4 51 6v22q0 14 -3.5 22t-8.5 12
q-14 11 -41 11q-9 0 -17 -2l-16 -4q-16 -5 -35 -17q-11 -6 -19.5 -12t-16.5 -12v58q7 7 17 12.5t26 12.5q32 13 64 13q48 0 76 -22q30 -24 30 -65v-152l3 -11q8 3 23 13q6 4 11.5 7.5t12.5 7.5v-53zM186 539q-4 0 -8.5 0.5t-9.5 -0.5q-8 -1 -19 -3t-25 -7q-22 -6 -41 -23
q-14 -11 -14 -31q0 -14 10 -21q7 -5 15.5 -8.5t20.5 -3.5q23 0 42 11q8 5 15.5 9.5t13.5 9.5v67z" />
    <glyph glyph-name="guillemotleft" unicode="&#xab;" horiz-adv-x="525" 
d="M422 -7l-200 238l198 238h93l-197 -238l200 -238h-94zM210 -7l-200 238l198 238h93l-197 -238l200 -238h-94z" />
    <glyph glyph-name="logicalnot" unicode="&#xac;" horiz-adv-x="672" 
d="M436 455q-14 11 -22.5 17t-17.5 12q-8 5 -18.5 11.5t-25.5 16.5q1 -19 1.5 -31.5t1.5 -23t1.5 -20.5t2.5 -25h-37q2 15 3 25t1.5 20.5t0.5 22.5q0 13 1 32q-15 -10 -25.5 -16.5t-18.5 -11.5q-9 -6 -17.5 -12t-22.5 -17l-18 35q13 5 23 9.5t19 9t20 10.5t28 15
q-17 8 -28 14t-20 10.5t-19 9t-23 9.5l18 34q14 -11 23 -17t17 -11q8 -6 18.5 -12.5t25.5 -15.5q-1 18 -1 30q0 13 -0.5 23.5t-1.5 21t-3 25.5h37q-2 -15 -2.5 -25.5t-1.5 -21t-1.5 -23t-1.5 -30.5q15 9 25.5 15.5t18.5 12.5q8 5 17 11t23 17l19 -34q-14 -5 -23.5 -9.5
l-19 -9t-21 -10.5t-27.5 -14q16 -9 27.5 -15t21 -10.5l19 -9t23.5 -9.5zM608 -80l-290 -1l139 -144l-29 -28l-290 302l28 27l138 -142v275l26 25l-197 241v-475h-51v551h49l205 -250l204 250h48v-551h-50v475l-198 -243l2 -276h303z" />
    <glyph glyph-name="registered" unicode="&#xae;" horiz-adv-x="840" 
d="M805 356q0 -158 -113 -273q-113 -113 -272 -113q-158 0 -273 113q-112 113 -112 272q0 160 112 273q115 113 272 113q160 0 273 -113q113 -115 113 -272zM733 355q0 131 -92 221q-92 93 -221 93t-221 -92t-92 -221q0 -131 91 -221q93 -93 221 -93q131 0 221 92
q93 93 93 221zM512 142q-22 53 -40 86t-32 51q-30 36 -84 36h-25v-173h-73v418h163q41 0 71 -8t49 -25q36 -33 36 -84q0 -39 -23 -70q-13 -15 -30 -26.5t-40 -16.5q29 -16 45 -40q11 -17 19 -33.5t16 -33.5l35 -81h-87zM496 440q0 17 -5.5 27t-15.5 15q-13 6 -31 10t-42 4
h-71v-118h59q35 0 55.5 4.5t30.5 12.5q20 15 20 45z" />
    <glyph glyph-name="macron" unicode="&#xaf;" 
d="M29 559v77h291v-76z" />
    <glyph glyph-name="degree" unicode="&#xb0;" horiz-adv-x="420" 
d="M362 552q0 -64 -44 -108q-47 -45 -107 -45q-63 0 -108 45t-45 107q0 63 45 108t107 45q61 0 108 -45q44 -44 44 -107zM297 551q0 38 -25 62q-26 26 -61 26q-38 0 -62 -26q-26 -26 -26 -61q0 -38 26 -62q24 -26 61 -26q36 0 62 26q25 25 25 61z" />
    <glyph glyph-name="twosuperior" unicode="&#xb2;" horiz-adv-x="329" 
d="M26 319v26q23 20 41 35.5t34 29.5q15 14 31 30t32 36q12 14 21.5 28.5t17.5 29.5q15 27 15 54q0 28 -24 46q-25 20 -62 20q-26 0 -49 -10q-11 -5 -24 -14t-38 -29v64q21 17 46 27q15 5 32 8.5t36 3.5q58 0 99 -32q42 -33 42 -84q0 -26 -14 -57q-6 -14 -13.5 -25
t-14.5 -22q-12 -18 -23.5 -32t-22.5 -25q-11 -14 -22.5 -26t-23.5 -24q-2 -1 -5 -4l-4 -4h185v-49z" />
    <glyph glyph-name="threesuperior" unicode="&#xb3;" horiz-adv-x="329" 
d="M292 432q0 -53 -42 -86q-21 -16 -46 -24t-57 -8q-33 0 -62 7q-14 4 -25.5 7t-23.5 8v50q19 -6 30.5 -9.5t22.5 -6.5q24 -6 55 -6q41 0 66 19q24 18 24 45q0 29 -23 46q-25 19 -71 19h-19v50h16q38 0 67 18q25 15 25 38q0 11 -5 19.5t-18 17.5q-26 18 -64 18
q-17 0 -30 -2.5t-23 -6.5q-12 -5 -22 -9t-28 -13v52q10 6 20 10t21 9q14 5 30.5 7.5t36.5 2.5q60 0 98 -28q20 -14 30.5 -32.5t10.5 -42.5q0 -30 -21 -55q-12 -15 -41 -26q25 -9 41 -25q27 -27 27 -63z" />
    <glyph glyph-name="acute" unicode="&#xb4;" 
d="M156 508h-61l121 182h117z" />
    <glyph glyph-name="mu" unicode="&#xb5;" horiz-adv-x="584" 
d="M412 -13v56q-20 -30 -44 -43q-39 -22 -76 -22q-35 0 -69 13q-29 12 -49 32v-213h-73v652h73v-280q0 -64 28 -98t81 -34q44 0 79 30q34 28 50 58v324h73v-475h-73z" />
    <glyph glyph-name="paragraph" unicode="&#xb6;" horiz-adv-x="683" 
d="M550 623v-847h-89v847h-104v-847h-89v505q-98 3 -156 58q-64 60 -64 159q0 101 67 159q66 59 177 59h353v-93h-95z" />
    <glyph glyph-name="periodcentered" unicode="&#xb7;" horiz-adv-x="295" 
d="M77 284v124h89v-123z" />
    <glyph glyph-name="periodcentered" unicode="&#x2219;" horiz-adv-x="295" 
d="M77 284v124h89v-123z" />
    <glyph glyph-name="cedilla" unicode="&#xb8;" 
d="M265 -101q0 -37 -32 -63q-32 -24 -79 -24l-58 7l8 56l45 -3q14 -1 24 1.5t17 6.5q11 6 11 18q0 13 -11 19q-6 5 -17.5 6.5t-38.5 1.5l29 96h55l-12 -46q11 -2 20 -7t17 -14q22 -24 22 -55z" />
    <glyph glyph-name="onesuperior" unicode="&#xb9;" horiz-adv-x="329" 
d="M136 319l-1 381h58l1 -380z" />
    <glyph glyph-name="ordmasculine" unicode="&#xba;" horiz-adv-x="372" 
d="M349 549q0 -67 -47 -110q-48 -45 -116 -45q-70 0 -117 44t-47 111q0 66 47 110q50 45 117 45q69 0 116 -44q47 -43 47 -111zM290 549q0 41 -30 71q-31 31 -74 31q-44 0 -74 -30q-32 -30 -32 -72q0 -41 31 -71q31 -31 75 -31t74 30q30 29 30 72z" />
    <glyph glyph-name="guillemotright" unicode="&#xbb;" horiz-adv-x="525" 
d="M315 -7h-94l200 238l-197 238h93l198 -238zM103 -7h-94l200 238l-197 238h93l198 -238z" />
    <glyph glyph-name="onequarter" unicode="&#xbc;" horiz-adv-x="875" 
d="M691 125v-138h-57v137h-200v27l227 221h30v-201h60v-46h-60zM154 -40h-70l543 744h71zM180 319l-1 381h58l1 -380zM634 279l-112 -109h112v109z" />
    <glyph glyph-name="onehalf" unicode="&#xbd;" horiz-adv-x="875" 
d="M500 -13v26q23 20 41 35.5t34 29.5q15 14 31 30t33 36q11 14 20.5 28.5t17.5 29.5q15 27 15 54q0 28 -24 46q-25 20 -62 20q-26 0 -49 -10q-11 -5 -24 -14t-38 -29v64q21 17 46 27q15 5 32 8.5t36 3.5q58 0 99 -32q42 -33 42 -84q0 -26 -14 -57q-6 -14 -13.5 -25
t-14.5 -22q-11 -18 -23 -32t-23 -25q-11 -14 -22.5 -26t-23.5 -24q-1 -1 -4.5 -4t-4.5 -4h185v-50h-292zM140 -40h-69l543 744h71zM167 319l-1 381h58l1 -380z" />
    <glyph glyph-name="threequarters" unicode="&#xbe;" horiz-adv-x="875" 
d="M729 125v-138h-57v137h-200v27l226 221h31v-201h60v-46h-60zM186 -40h-70l543 744h71zM329 432q0 -53 -42 -86q-21 -16 -46 -24t-57 -8q-33 0 -62 7q-14 4 -25.5 7t-23.5 8v50q19 -6 30.5 -9.5t22.5 -6.5q24 -6 55 -6q41 0 66 19q24 18 24 45q0 29 -23 46q-25 19 -71 19
h-19v50h16q38 0 67 18q25 15 25 38q0 11 -5 19.5t-18 17.5q-26 18 -64 18q-17 0 -30 -2.5t-23 -6.5q-12 -5 -22 -9t-28 -13v52q10 6 20 10t21 9q14 5 30.5 7.5t36.5 2.5q60 0 98 -28q20 -14 30.5 -32.5t10.5 -42.5q0 -30 -21 -55q-12 -15 -41 -26q25 -9 41 -25
q27 -27 27 -63zM672 279l-112 -109h112v109z" />
    <glyph glyph-name="questiondown" unicode="&#xbf;" horiz-adv-x="295" 
d="M114 362v123h90v-122zM265 -197q-2 -1 -12.5 -6t-25.5 -12.5t-20 -9.5q-22 -8 -45 -8q-35 0 -61.5 11.5t-43.5 36.5q-18 23 -26 50t-8 57q0 60 22 104q11 21 29.5 50t42.5 64q11 17 18 29.5t11 22.5q6 21 6 40q0 5 -0.5 10t-1.5 10l-6 15t-13 28l34 30q14 -16 21.5 -27.5
t14.5 -23.5q14 -30 14 -54q0 -32 -9 -59q-5 -14 -13.5 -31t-21.5 -38q-17 -27 -30 -50.5t-23 -43.5q-19 -41 -19 -81q0 -36 18 -58q18 -24 46 -24q6 0 16.5 4.5t21.5 10t21.5 11.5t16.5 9z" />
    <glyph glyph-name="Agrave" unicode="&#xc0;" horiz-adv-x="700" 
d="M367 737l-177 181h117l121 -181h-61zM617 -13l-108 237h-317l-108 -237h-83l327 713h45l325 -713h-81zM350 571l-127 -278h254z" />
    <glyph glyph-name="Aacute" unicode="&#xc1;" horiz-adv-x="700" 
d="M374 736h-60l120 182h118zM617 -13l-108 237h-317l-108 -237h-83l327 713h45l325 -713h-81zM350 571l-127 -278h254z" />
    <glyph glyph-name="Acircumflex" unicode="&#xc2;" horiz-adv-x="700" 
d="M444 717l-94 103l-94 -103h-66l124 190h72l125 -189zM617 -13l-108 237h-317l-108 -237h-83l327 713h45l325 -713h-81zM350 571l-127 -278h254z" />
    <glyph glyph-name="Atilde" unicode="&#xc3;" horiz-adv-x="700" 
d="M525 873q0 -31 -5.5 -51t-16.5 -36q-24 -34 -72 -34q-36 0 -94 26q-59 24 -76 24q-8 0 -18 -8q-4 -3 -7.5 -11t-5.5 -30h-56q0 31 6 51t17 36q12 18 30.5 26t41.5 8q34 0 94 -26q58 -24 77 -24q8 0 17 8q4 3 7.5 11.5t6.5 29.5h54zM617 -13l-108 237h-317l-108 -237h-83
l327 713h45l325 -713h-81zM350 571l-127 -278h254z" />
    <glyph glyph-name="Adieresis" unicode="&#xc4;" horiz-adv-x="700" 
d="M373 763v94h93v-93zM236 763v94h93v-94h-93zM617 -13l-108 237h-317l-108 -237h-83l327 713h45l325 -713h-81zM350 571l-127 -278h254z" />
    <glyph glyph-name="AE" unicode="&#xc6;" horiz-adv-x="908" 
d="M472 -13v323h-181l-201 -323h-86l441 708h425v-69h-320v-248h311v-68l-311 -1v-252h327v-70h-405zM472 600l-136 -221h136v221z" />
    <glyph glyph-name="Ccedilla" unicode="&#xc7;" horiz-adv-x="711" 
d="M678 49q-20 -12 -42 -21.5t-46 -17.5t-47.5 -13t-46.5 -8q-12 -2 -23.5 -4t-22.5 -3q-7 -1 -15 -8.5t-14 -7.5q21 -8 32 -25q13 -20 13 -42q0 -37 -32 -63q-32 -24 -79 -24l-58 7l9 56l44 -3q14 -1 24 1.5t17 6.5q11 6 11 18q0 13 -11 19q-6 5 -17.5 6.5t-38.5 1.5l18 60
q-115 18 -197 95q-109 102 -109 261q0 156 109 259q108 104 272 104q56 0 119 -16q33 -8 62.5 -19t60.5 -27v-89q-38 23 -68 35.5t-61 22.5q-57 19 -122 19q-63 0 -114 -21t-93 -62q-83 -83 -83 -206q0 -129 81 -208q83 -81 212 -81q72 0 131 22q31 11 60 24.5t65 33.5v-83
v0z" />
    <glyph glyph-name="Egrave" unicode="&#xc8;" horiz-adv-x="515" 
d="M316 731l-178 182h117l121 -181zM67 -13v708h398v-69h-320v-248h311v-68l-311 -1v-252h327v-70h-405z" />
    <glyph glyph-name="Eacute" unicode="&#xc9;" horiz-adv-x="515" 
d="M280 726h-60l120 182h118zM66 -13v708h398v-69h-320v-248h311v-68l-311 -1v-252h327v-70h-405z" />
    <glyph glyph-name="Ecircumflex" unicode="&#xca;" horiz-adv-x="515" 
d="M351 727l-94 103l-94 -103h-66l124 190h71l126 -189zM67 -13v708h398v-69h-320v-248h311v-68l-311 -1v-252h327v-70h-405z" />
    <glyph glyph-name="Edieresis" unicode="&#xcb;" horiz-adv-x="515" 
d="M280 763v94h93v-93zM143 763v94h93v-94h-93zM67 -13v708h398v-69h-320v-248h311v-68l-311 -1v-252h327v-70h-405z" />
    <glyph glyph-name="Igrave" unicode="&#xcc;" horiz-adv-x="218" 
d="M170 726l-178 182h118l121 -181zM72 -13v708h77v-708h-77z" />
    <glyph glyph-name="Iacute" unicode="&#xcd;" horiz-adv-x="218" 
d="M136 736h-61l121 182h118zM72 -13v708h77v-708h-77z" />
    <glyph glyph-name="Icircumflex" unicode="&#xce;" horiz-adv-x="218" 
d="M204 717l-95 103l-93 -103h-67l125 190h71l126 -189zM70 -13v708h77v-708h-77z" />
    <glyph glyph-name="Idieresis" unicode="&#xcf;" horiz-adv-x="218" 
d="M132 763v94h93v-93zM-5 763v94h93v-94h-93zM69 -13v708h77v-708h-77z" />
    <glyph glyph-name="Eth" unicode="&#xd0;" horiz-adv-x="777" 
d="M739 340q0 -78 -25 -141t-74 -113q-99 -99 -274 -99h-262v320h-103v69h102v322l256 -4q87 -1 156 -23.5t120 -70.5q104 -95 104 -260zM657 340q0 129 -83 207q-82 79 -220 79h-173v-249h222v-69h-222v-252h171q137 0 221 78q83 76 83 206h1z" />
    <glyph glyph-name="Ntilde" unicode="&#xd1;" horiz-adv-x="810" 
d="M584 873q0 -31 -6 -51t-17 -36q-24 -34 -72 -34q-34 0 -94 26q-59 24 -76 24q-8 0 -18 -8q-4 -3 -7.5 -11t-5.5 -30h-55q0 31 5.5 51t16.5 36q12 18 30.5 26t41.5 8q36 0 94 -26q58 -24 77 -24q9 0 17 8q4 3 7.5 11.5t6.5 29.5h55zM662 -13l-499 576v-576h-78v708h63
q68 -81 132 -156t130 -148q60 -66 119 -134t119 -139v577h78v-708h-64z" />
    <glyph glyph-name="Ograve" unicode="&#xd2;" horiz-adv-x="864" 
d="M460 736l-177 182h117l121 -181zM806 341q0 -155 -108 -258q-108 -105 -266 -105t-265 104q-54 52 -81 117t-27 142q0 155 107 258q108 105 266 105q159 0 266 -104q108 -104 108 -259zM724 341q0 118 -86 204q-84 85 -206 85q-121 0 -206 -85t-85 -204q0 -120 84 -204
q85 -85 207 -85t206 85q86 86 86 204z" />
    <glyph glyph-name="Oacute" unicode="&#xd3;" horiz-adv-x="864" 
d="M456 736h-61l121 182h117zM806 341q0 -155 -108 -258q-108 -105 -266 -105t-265 104q-54 52 -81 117t-27 142q0 155 107 258q108 105 266 105q159 0 266 -104q108 -104 108 -259zM724 341q0 118 -86 204q-84 85 -206 85q-121 0 -206 -85t-85 -204q0 -120 84 -204
q85 -85 207 -85t206 85q86 86 86 204z" />
    <glyph glyph-name="Ocircumflex" unicode="&#xd4;" horiz-adv-x="864" 
d="M525 727l-95 103l-93 -103h-67l125 190h68l129 -189zM806 341q0 -155 -108 -258q-108 -105 -266 -105t-265 104q-54 52 -81 117t-27 142q0 155 107 258q108 105 266 105q159 0 266 -104q108 -104 108 -259zM724 341q0 118 -86 204q-84 85 -206 85q-121 0 -206 -85
t-85 -204q0 -120 84 -204q85 -85 207 -85t206 85q86 86 86 204z" />
    <glyph glyph-name="Otilde" unicode="&#xd5;" horiz-adv-x="864" 
d="M607 873q0 -31 -5.5 -51t-16.5 -36q-24 -34 -73 -34q-34 0 -94 26q-59 24 -76 24q-8 0 -18 -8q-4 -3 -7 -11t-5 -30h-56q0 31 5.5 51t16.5 36q13 18 31 26t41 8q36 0 94 -26q60 -24 77 -24q9 0 17 8q5 3 8 11.5t7 29.5h54zM806 341q0 -155 -108 -258q-108 -105 -266 -105
t-265 104q-54 52 -81 117t-27 142q0 155 107 258q108 105 266 105q159 0 266 -104q108 -104 108 -259zM724 341q0 118 -86 204q-84 85 -206 85q-121 0 -206 -85t-85 -204q0 -120 84 -204q85 -85 207 -85t206 85q86 86 86 204z" />
    <glyph glyph-name="Odieresis" unicode="&#xd6;" horiz-adv-x="864" 
d="M455 763v94h93v-93zM318 763v94h93v-94h-93zM806 341q0 -155 -108 -258q-108 -105 -266 -105t-265 104q-54 52 -81 117t-27 142q0 155 107 258q108 105 266 105q159 0 266 -104q108 -104 108 -259zM724 341q0 118 -86 204q-84 85 -206 85q-121 0 -206 -85t-85 -204
q0 -120 84 -204q85 -85 207 -85t206 85q86 86 86 204z" />
    <glyph glyph-name="multiply" unicode="&#xd7;" horiz-adv-x="693" 
d="M516 132l-169 169l-169 -169l-50 50l169 169l-169 169l49 50l169 -169l169 169l50 -50l-169 -169l169 -169z" />
    <glyph glyph-name="Oslash" unicode="&#xd8;" horiz-adv-x="864" 
d="M806 341q0 -155 -108 -258q-108 -105 -266 -105q-126 0 -217 64l-62 -69l-57 41l65 73l-4 4q-98 103 -98 250q0 155 107 258q108 105 266 105q130 0 223 -69l62 70l58 -41l-68 -75q99 -102 99 -248zM724 341q0 109 -71 188l-385 -428q70 -49 164 -49q122 0 206 85
q86 86 86 204zM602 576q-72 54 -170 54q-121 0 -206 -85t-85 -204q0 -113 74 -193z" />
    <glyph glyph-name="Ugrave" unicode="&#xd9;" horiz-adv-x="733" 
d="M424 726l-178 182h118l121 -181zM665 296q0 -138 -83 -227q-82 -91 -215 -91q-131 0 -215 87q-83 87 -83 226v404h78v-400q0 -113 59 -178q60 -65 162 -65q100 0 159 67q29 34 44.5 78.5t15.5 102.5v395h78v-399z" />
    <glyph glyph-name="Uacute" unicode="&#xda;" horiz-adv-x="733" 
d="M389 726h-60l121 182h117zM665 296q0 -138 -83 -227q-82 -91 -215 -91q-131 0 -215 87q-83 87 -83 226v404h78v-400q0 -113 59 -178q60 -65 162 -65q100 0 159 67q29 34 44.5 78.5t15.5 102.5v395h78v-399z" />
    <glyph glyph-name="Ucircumflex" unicode="&#xdb;" horiz-adv-x="733" 
d="M460 717l-95 103l-93 -103h-67l124 190h72l126 -189zM665 296q0 -138 -83 -227q-82 -91 -215 -91q-131 0 -215 87q-83 87 -83 226v404h78v-400q0 -113 59 -178q60 -65 162 -65q100 0 159 67q29 34 44.5 78.5t15.5 102.5v395h78v-399z" />
    <glyph glyph-name="Udieresis" unicode="&#xdc;" horiz-adv-x="733" 
d="M389 763v94h93v-93zM252 763v94h93v-94h-93zM665 296q0 -138 -83 -227q-82 -91 -215 -91q-131 0 -215 87q-83 87 -83 226v404h78v-400q0 -113 59 -178q60 -65 162 -65q100 0 159 67q29 34 44.5 78.5t15.5 102.5v395h78v-399z" />
    <glyph glyph-name="Yacute" unicode="&#xdd;" horiz-adv-x="612" 
d="M329 726h-61l121 182h117zM345 361v-374h-78v374l-279 334h96l223 -264l221 263h96z" />
    <glyph glyph-name="Thorn" unicode="&#xde;" horiz-adv-x="536" 
d="M499 341q0 -93 -63 -144q-62 -49 -171 -49h-123v-161h-78v708h78v-159h121q109 0 172 -49q64 -51 64 -146zM418 342q0 58 -39 90q-41 35 -112 35h-125v-250h119q76 0 117 33q40 31 40 92z" />
    <glyph glyph-name="germandbls" unicode="&#xdf;" horiz-adv-x="525" 
d="M480 199q0 -89 -53 -154q-55 -67 -145 -67q-11 0 -19.5 1t-16.5 3q-7 2 -14 3.5t-20 5.5v77q17 -6 24.5 -8.5t15.5 -4.5t16.5 -3.5t17.5 -1.5q54 0 85 42q32 44 32 107q0 56 -27 97q-13 19 -38 31.5t-71 17.5v68h21q35 0 60 31t25 78q0 32 -9.5 53.5t-26.5 34.5
q-37 29 -89 29t-85 -36q-16 -17 -24.5 -54.5t-8.5 -100.5v-461h-74v495q0 112 55 167q57 55 140 55q86 0 141 -50q57 -50 57 -128q0 -37 -22 -86q-16 -38 -55 -60q40 -16 70 -54q38 -49 38 -127z" />
    <glyph glyph-name="agrave" unicode="&#xe0;" horiz-adv-x="507" 
d="M283 508l-178 182h118l120 -181zM405 -15v26q-12 -5 -25 -11.5t-26 -10.5q-39 -11 -80 -11q-101 0 -165 66q-65 66 -65 168q0 113 66 185q69 74 173 74q30 0 61 -11q33 -11 62 -27l23 -10l48 -25l1 -413h-73zM406 359q-7 5 -17 12.5t-24 13.5q-33 14 -71 14
q-76 0 -124 -53q-50 -52 -50 -133q0 -76 44 -120q23 -23 51.5 -34.5t66.5 -11.5q45 0 75 12q14 5 26 13.5t23 14.5v272z" />
    <glyph glyph-name="aacute" unicode="&#xe1;" horiz-adv-x="498" 
d="M246 508h-61l121 182h117zM405 -15v26q-12 -5 -25 -11.5t-26 -10.5q-39 -11 -80 -11q-101 0 -165 66q-65 66 -65 168q0 113 66 185q69 74 173 74q30 0 61 -11q33 -11 62 -27l23 -10l48 -25l1 -413h-73zM406 359q-7 5 -17 12.5t-24 13.5q-33 14 -71 14q-76 0 -124 -53
q-50 -52 -50 -133q0 -76 44 -120q23 -23 51.5 -34.5t66.5 -11.5q45 0 75 12q14 5 26 13.5t23 14.5v272z" />
    <glyph glyph-name="acircumflex" unicode="&#xe2;" horiz-adv-x="518" 
d="M361 499l-94 103l-94 -103h-66l124 190h72l125 -189zM405 -15v26q-12 -5 -25 -11.5t-26 -10.5q-39 -11 -80 -11q-101 0 -165 66q-65 66 -65 168q0 113 66 185q69 74 173 74q30 0 61 -11q33 -11 62 -27l23 -10l48 -25l1 -413h-73zM406 359q-7 5 -17 12.5t-24 13.5
q-33 14 -71 14q-76 0 -124 -53q-50 -52 -50 -133q0 -76 44 -120q23 -23 51.5 -34.5t66.5 -11.5q45 0 75 12q14 5 26 13.5t23 14.5v272z" />
    <glyph glyph-name="atilde" unicode="&#xe3;" horiz-adv-x="506" 
d="M439 655q0 -31 -5.5 -51t-16.5 -36q-24 -34 -72 -34q-36 0 -94 26q-60 24 -76 24q-8 0 -19 -8q-3 -3 -6.5 -11t-5.5 -30h-56q0 31 6 51t17 36q12 18 30.5 26t41.5 8q34 0 94 -26q58 -24 77 -24q8 0 17 8q4 3 7.5 11.5t6.5 29.5h54zM405 -15v26q-12 -5 -25 -11.5
t-26 -10.5q-39 -11 -80 -11q-101 0 -165 66q-65 66 -65 168q0 113 66 185q69 74 173 74q30 0 61 -11q33 -11 62 -27l23 -10l48 -25l1 -413h-73zM406 359q-7 5 -17 12.5t-24 13.5q-33 14 -71 14q-76 0 -124 -53q-50 -52 -50 -133q0 -76 44 -120q23 -23 51.5 -34.5t66.5 -11.5
q45 0 75 12q14 5 26 13.5t23 14.5v272z" />
    <glyph glyph-name="adieresis" unicode="&#xe4;" horiz-adv-x="515" 
d="M289 545v94h94v-93zM152 545v94h93v-94h-93zM405 -15v26q-12 -5 -25 -11.5t-26 -10.5q-39 -11 -80 -11q-101 0 -165 66q-65 66 -65 168q0 113 66 185q69 74 173 74q30 0 61 -11q33 -11 62 -27l23 -10l48 -25l1 -413h-73zM406 359q-7 5 -17 12.5t-24 13.5q-33 14 -71 14
q-76 0 -124 -53q-50 -52 -50 -133q0 -76 44 -120q23 -23 51.5 -34.5t66.5 -11.5q45 0 75 12q14 5 26 13.5t23 14.5v272z" />
    <glyph glyph-name="ae" unicode="&#xe6;" horiz-adv-x="788" 
d="M458 229v-46q9 -48 40 -84q42 -49 102 -49q41 0 76 22q19 13 35 26t41 37v-90q-17 -13 -34 -24t-38 -21q-44 -22 -97 -22q-45 0 -83 20q-9 5 -21 15t-20 18v-46h-73v26q-13 -5 -25.5 -11.5t-26.5 -10.5q-39 -11 -80 -11q-101 0 -165 66q-65 66 -65 168q0 114 67 185
q68 74 173 74q28 0 61 -11q30 -10 61 -27l56 -41q12 26 27 41t23 19q36 19 81 19q82 0 136 -66q26 -33 39 -75.5t13 -100.5h-303zM674 292q-7 49 -30 76q-25 31 -69 31q-53 0 -86 -48q-8 -11 -14 -26t-11 -32h210v-1zM387 359q-8 5 -17.5 12.5t-23.5 13.5q-16 7 -33.5 10.5
t-38.5 3.5q-74 0 -124 -53q-24 -26 -37 -59t-13 -74q0 -75 45 -120q44 -46 118 -46q45 0 74 12q14 5 26.5 13.5t22.5 14.5z" />
    <glyph glyph-name="ccedilla" unicode="&#xe7;" horiz-adv-x="438" 
d="M407 5q-8 -2 -16.5 -5t-20.5 -6q-14 -4 -27.5 -6.5t-28.5 -4.5q-6 0 -12 -0.5t-12 -1.5q-4 -1 -9.5 -8t-8.5 -7q19 -6 32 -25q13 -17 13 -42q0 -39 -32 -63t-78 -24l-59 7l9 56l44 -3q14 -1 24.5 1.5t16.5 6.5q11 6 11 18q0 13 -10 19q-6 5 -18 6.5t-38 1.5l18 62
q-62 13 -105 58q-63 67 -63 179q0 102 62 173q65 74 170 74q37 0 65 -7q15 -3 30 -7.5t35 -11.5v-82q-23 11 -37.5 16t-28.5 10q-28 10 -63 10q-71 0 -113 -48q-44 -50 -44 -127q0 -80 44 -127q21 -23 50.5 -35t68.5 -12q36 0 66 9q15 5 29.5 10t35.5 14v-78v0z" />
    <glyph glyph-name="egrave" unicode="&#xe8;" horiz-adv-x="503" 
d="M308 508l-178 182h118l121 -181zM113 229v-18q3 -65 49 -111q25 -24 55 -37t68 -13q51 0 92 23q22 12 40 25t43 36v-89q-17 -13 -34.5 -24t-38.5 -20q-49 -23 -106 -23q-106 0 -175 71q-68 73 -68 182q0 101 61 169q62 71 158 71q93 0 153 -66q29 -32 44 -74.5t15 -102.5
zM381 292q-11 49 -37 75q-15 15 -36 23.5t-50 8.5q-66 0 -105 -49q-19 -24 -29 -57h257v-1z" />
    <glyph glyph-name="eacute" unicode="&#xe9;" horiz-adv-x="503" 
d="M273 508h-60l121 182h117zM113 229v-18q3 -65 49 -111q25 -24 55 -37t68 -13q51 0 92 23q22 12 40 25t43 36v-89q-17 -13 -34.5 -24t-38.5 -20q-49 -23 -106 -23q-106 0 -175 71q-68 73 -68 182q0 101 61 169q62 71 158 71q93 0 153 -66q29 -32 44 -74.5t15 -102.5z
M381 292q-11 49 -37 75q-15 15 -36 23.5t-50 8.5q-66 0 -105 -49q-19 -24 -29 -57h257v-1z" />
    <glyph glyph-name="ecircumflex" unicode="&#xea;" horiz-adv-x="503" 
d="M344 499l-95 103l-93 -103h-67l124 190h72l126 -189zM113 229v-18q3 -65 49 -111q25 -24 55 -37t68 -13q51 0 92 23q22 12 40 25t43 36v-89q-17 -13 -34.5 -24t-38.5 -20q-49 -23 -106 -23q-106 0 -175 71q-68 73 -68 182q0 101 61 169q62 71 158 71q93 0 153 -66
q29 -32 44 -74.5t15 -102.5zM381 292q-11 49 -37 75q-15 15 -36 23.5t-50 8.5q-66 0 -105 -49q-19 -24 -29 -57h257v-1z" />
    <glyph glyph-name="edieresis" unicode="&#xeb;" horiz-adv-x="503" 
d="M273 545v94h93v-93zM136 545v94h93v-94h-93zM113 229v-18q3 -65 49 -111q25 -24 55 -37t68 -13q51 0 92 23q22 12 40 25t43 36v-89q-17 -13 -34.5 -24t-38.5 -20q-49 -23 -106 -23q-106 0 -175 71q-68 73 -68 182q0 101 61 169q62 71 158 71q93 0 153 -66
q29 -32 44 -74.5t15 -102.5zM381 292q-11 49 -37 75q-15 15 -36 23.5t-50 8.5q-66 0 -105 -49q-19 -24 -29 -57h257v-1z" />
    <glyph glyph-name="igrave" unicode="&#xec;" horiz-adv-x="197" 
d="M158 508l-177 182h117l121 -181zM64 -13v475h73v-475h-73z" />
    <glyph glyph-name="iacute" unicode="&#xed;" horiz-adv-x="197" 
d="M84 508h-60l121 182h117zM65 -13v475h73v-475h-73z" />
    <glyph glyph-name="icircumflex" unicode="&#xee;" horiz-adv-x="197" 
d="M192 499l-94 103l-94 -103h-66l124 190h72l125 -189zM62 -13v475h73v-475h-73z" />
    <glyph glyph-name="idieresis" unicode="&#xef;" horiz-adv-x="197" 
d="M121 545v94h93v-93zM-16 545v94h93v-94h-93zM62 -13v475h73v-475h-73z" />
    <glyph glyph-name="eth" unicode="&#xf0;" horiz-adv-x="587" 
d="M550 248q0 -120 -70 -194q-70 -77 -183 -77q-111 0 -184 70q-74 70 -74 175q0 108 73 178q72 71 186 71q38 0 74 -12q34 -11 70 -41q-22 55 -62 100q-8 8 -19 18.5t-27 22.5l-149 -69l-25 56l114 53q-14 8 -33.5 19t-45.5 23l29 56q45 -17 75 -32t51 -31l136 65l27 -56
l-110 -51q41 -38 66 -74q81 -119 81 -270zM474 229q0 76 -50 126q-50 51 -129 51q-81 0 -133 -54t-52 -131q0 -76 53 -126q53 -52 133 -52t128 52q50 52 50 134z" />
    <glyph glyph-name="ntilde" unicode="&#xf1;" horiz-adv-x="515" 
d="M434 655q0 -31 -5.5 -51t-16.5 -36q-24 -34 -73 -34q-34 0 -94 26q-59 24 -76 24q-8 0 -18 -8q-4 -3 -7 -11t-6 -30h-55q0 31 5.5 51t16.5 36q13 18 31 26t41 8q36 0 94 -26q60 -24 77 -24q9 0 17 8q4 3 7.5 11.5t7.5 29.5h54zM380 -13v269q0 35 -7.5 62t-21.5 44
q-28 37 -82 37q-50 0 -81 -26q-16 -13 -29 -28t-24 -32v-326h-73v475h72v-60q23 32 49 47q39 22 86 22q83 0 134 -54q26 -27 38 -64t12 -82v-284h-73z" />
    <glyph glyph-name="ograve" unicode="&#xf2;" horiz-adv-x="569" 
d="M343 508l-177 182h117l121 -181zM526 224q0 -102 -68 -175q-70 -71 -173 -71q-104 0 -172 71q-70 73 -70 175q0 104 69 176q68 71 173 71q103 0 172 -71q69 -72 69 -176zM450 224q0 73 -48 123q-49 52 -117 52q-69 0 -117 -51q-49 -50 -49 -124q0 -73 49 -122
q49 -52 117 -52q67 0 117 51q48 51 48 123z" />
    <glyph glyph-name="oacute" unicode="&#xf3;" horiz-adv-x="569" 
d="M309 508h-61l121 182h117zM526 224q0 -102 -68 -175q-70 -71 -173 -71q-104 0 -172 71q-70 73 -70 175q0 104 69 176q68 71 173 71q103 0 172 -71q69 -72 69 -176zM450 224q0 73 -48 123q-49 52 -117 52q-69 0 -117 -51q-49 -50 -49 -124q0 -73 49 -122q49 -52 117 -52
q67 0 117 51q48 51 48 123z" />
    <glyph glyph-name="ocircumflex" unicode="&#xf4;" horiz-adv-x="569" 
d="M379 499l-94 103l-94 -103h-67l125 190h71l126 -189zM526 224q0 -102 -68 -175q-70 -71 -173 -71q-104 0 -172 71q-70 73 -70 175q0 104 69 176q68 71 173 71q103 0 172 -71q69 -72 69 -176zM450 224q0 73 -48 123q-49 52 -117 52q-69 0 -117 -51q-49 -50 -49 -124
q0 -73 49 -122q49 -52 117 -52q67 0 117 51q48 51 48 123z" />
    <glyph glyph-name="otilde" unicode="&#xf5;" horiz-adv-x="569" 
d="M460 655q0 -31 -5.5 -51t-16.5 -36q-12 -17 -30.5 -25.5t-41.5 -8.5q-36 0 -94 26q-60 24 -76 24q-8 0 -19 -8q-4 -3 -7 -11t-5 -30h-56q0 31 5.5 51t16.5 36q13 18 31.5 26t41.5 8q35 0 93 -26q30 -12 48.5 -18t29.5 -6q8 0 17 8q4 3 7 11.5t7 29.5h54zM526 224
q0 -102 -68 -175q-70 -71 -173 -71q-104 0 -172 71q-70 73 -70 175q0 104 69 176q68 71 173 71q103 0 172 -71q69 -72 69 -176zM450 224q0 73 -48 123q-49 52 -117 52q-69 0 -117 -51q-49 -50 -49 -124q0 -73 49 -122q49 -52 117 -52q67 0 117 51q48 51 48 123z" />
    <glyph glyph-name="odieresis" unicode="&#xf6;" horiz-adv-x="569" 
d="M308 545v94h93v-93zM171 545v94h93v-94h-93zM526 224q0 -102 -68 -175q-70 -71 -173 -71q-104 0 -172 71q-70 73 -70 175q0 104 69 176q68 71 173 71q103 0 172 -71q69 -72 69 -176zM450 224q0 73 -48 123q-49 52 -117 52q-69 0 -117 -51q-49 -50 -49 -124q0 -73 49 -122
q49 -52 117 -52q67 0 117 51q48 51 48 123z" />
    <glyph glyph-name="divide" unicode="&#xf7;" horiz-adv-x="693" 
d="M307 459v110h79v-109zM72 316v70h549v-70h-549zM307 133v110h79v-110h-79z" />
    <glyph glyph-name="oslash" unicode="&#xf8;" horiz-adv-x="569" 
d="M529 338q0 -2 -4.5 -9.5t-10 -15.5t-10 -15.5t-4.5 -9.5q24 -51 18 -114q-9 -74 -59 -125q-35 -36 -78.5 -53.5t-94.5 -17.5q-79 0 -137 41l-57 -66l-51 39l61 70q-57 64 -57 162q0 105 68 176q35 36 78.5 53.5t94.5 17.5q78 0 136 -40l53 60l20 -16l-18 -39
q8 -8 17 -19.5t17 -25t13 -27.5t5 -26zM452 224q0 59 -34 104l-219 -252q37 -26 87 -26q69 0 117 51q49 50 49 123zM372 373q-37 26 -86 26q-68 0 -117 -51q-48 -49 -48 -124q0 -59 32 -103z" />
    <glyph glyph-name="ugrave" unicode="&#xf9;" horiz-adv-x="515" 
d="M315 508l-178 182h118l121 -181zM455 164q-6 -75 -22 -96q-28 -44 -67 -65q-39 -22 -114 -25q-90 0 -140 50t-50 144v290h73v-280q0 -64 34 -99.5t86 -35.5q61 1 91 27q36 36 34 64v324h73z" />
    <glyph glyph-name="uacute" unicode="&#xfa;" horiz-adv-x="515" 
d="M275 508h-61l121 182h117zM455 164q-6 -75 -22 -96q-28 -44 -67 -65q-39 -22 -114 -25q-90 0 -140 50t-50 144v290h73v-280q0 -64 34 -99.5t86 -35.5q61 1 91 27q36 36 34 64v324h73z" />
    <glyph glyph-name="ucircumflex" unicode="&#xfb;" horiz-adv-x="515" 
d="M351 499l-95 103l-93 -103h-67l125 190h71l126 -189zM455 164q-6 -75 -22 -96q-28 -44 -67 -65q-39 -22 -114 -25q-90 0 -140 50t-50 144v290h73v-280q0 -64 34 -99.5t86 -35.5q61 1 91 27q36 36 34 64v324h73z" />
    <glyph glyph-name="udieresis" unicode="&#xfc;" horiz-adv-x="515" 
d="M280 545v94h93v-93zM143 545v94h93v-94h-93zM455 164q-6 -75 -22 -96q-28 -44 -67 -65q-39 -22 -114 -25q-90 0 -140 50t-50 144v290h73v-280q0 -64 34 -99.5t86 -35.5q61 1 91 27q36 36 34 64v324h73z" />
    <glyph glyph-name="yacute" unicode="&#xfd;" horiz-adv-x="438" 
d="M239 508h-60l121 182h117zM103 -243h-77l163 329l-196 376h80l154 -299l146 298h77z" />
    <glyph glyph-name="thorn" unicode="&#xfe;" horiz-adv-x="536" 
d="M489 225q0 -99 -68 -172q-68 -75 -163 -75q-42 0 -76 9q-13 3 -25.5 8t-25.5 11v-249h-73v938h73v-252q22 12 48 18q18 5 35 7.5t34 2.5q105 0 173 -69t68 -177zM411 224q0 76 -50 124q-50 51 -125 51q-41 0 -68 -12q-26 -9 -37 -16v-292q8 -5 18.5 -8.5t22.5 -8.5
q15 -5 32.5 -8.5t37.5 -3.5q77 0 122 49q47 49 47 125z" />
    <glyph glyph-name="ydieresis" unicode="&#xff;" horiz-adv-x="438" 
d="M239 545v94h93v-93zM102 545v94h93v-94h-93zM103 -243h-77l163 329l-196 376h80l154 -299l146 298h77z" />
    <glyph glyph-name="uniE000" unicode="&#xe000;" horiz-adv-x="693" 
d="M72 316v70h549v-69z" />
    <glyph glyph-name="uniE001" unicode="&#xe001;" horiz-adv-x="693" 
d="M323 196l-46 -123h-71l46 122h-180v69h207l65 173h-272v69h299l46 123h71l-46 -122h179v-69h-206l-65 -173h271v-69h-298z" />
    <glyph glyph-name="uniE002" unicode="&#xe002;" horiz-adv-x="749" 
d="M719 264q0 -67 -48 -109q-49 -44 -106 -44q-35 0 -80 20q-42 17 -110 81q-70 -64 -111 -81q-43 -20 -79 -20q-58 0 -106 43q-49 44 -49 110t48 109q49 44 107 44q44 0 85 -21q20 -10 46 -29.5t59 -50.5q32 31 58 50.5t45 29.5q42 21 87 21q57 0 105 -43q49 -43 49 -110z
M643 264q0 28 -21 52q-22 25 -57 25q-41 0 -74 -24q-17 -11 -32 -24.5t-29 -28.5q27 -28 60 -52q36 -25 75 -25q19 0 32.5 5.5t24.5 15.5q21 19 21 56zM319 264q-27 28 -60 52q-36 25 -74 25q-35 0 -57 -24q-22 -26 -22 -53q0 -36 20 -56q21 -21 59 -21q40 0 73 24
q17 11 32 24.5t29 28.5z" />
    <glyph glyph-name="uniE003" unicode="&#xe003;" horiz-adv-x="693" 
d="M72 362v58l549 231v-76l-444 -184l444 -184v-76zM72 -13v61h549v-61h-549z" />
    <glyph glyph-name="uniE004" unicode="&#xe004;" horiz-adv-x="693" 
d="M72 131v76l443 184l-443 184v76l549 -231v-58zM72 -13v61h549v-61h-549z" />
    <glyph glyph-name="uniE005" unicode="&#xe005;" horiz-adv-x="875" 
d="M500 -13v26q23 20 41 35.5t34 29.5q15 14 31 30t33 36q11 14 20.5 28.5t17.5 29.5q15 27 15 54q0 28 -24 46q-25 20 -62 20q-26 0 -49 -10q-11 -5 -24 -14t-38 -29v64q21 17 46 27q15 5 32 8.5t36 3.5q58 0 99 -32q42 -33 42 -84q0 -26 -14 -57q-6 -14 -13.5 -25
t-14.5 -22q-11 -18 -23 -32t-23 -25q-11 -14 -22.5 -26t-23.5 -24q-1 -1 -4.5 -4t-4.5 -4h185v-50h-292zM140 -40h-69l543 744h71zM167 319l-1 381h58l1 -380z" />
    <glyph glyph-name="uniE006" unicode="&#xe006;" horiz-adv-x="875" 
d="M691 125v-138h-57v137h-200v27l227 221h30v-201h60v-46h-60zM154 -40h-70l543 744h71zM180 319l-1 381h58l1 -380zM634 279l-112 -109h112v109z" />
    <glyph glyph-name="uniE007" unicode="&#xe007;" horiz-adv-x="875" 
d="M729 125v-138h-57v137h-200v27l226 221h31v-201h60v-46h-60zM186 -40h-70l543 744h71zM329 432q0 -53 -42 -86q-21 -16 -46 -24t-57 -8q-33 0 -62 7q-14 4 -25.5 7t-23.5 8v50q19 -6 30.5 -9.5t22.5 -6.5q24 -6 55 -6q41 0 66 19q24 18 24 45q0 29 -23 46q-25 19 -71 19
h-19v50h16q20 0 36.5 5t30.5 13t19.5 17.5t5.5 20.5q0 21 -23 37q-13 8 -28.5 13t-35.5 5q-17 0 -30 -2.5t-23 -6.5q-12 -5 -22 -9t-28 -13v52q10 6 20 10t21 9q14 5 30.5 7.5t36.5 2.5q60 0 98 -28q20 -14 30.5 -32.5t10.5 -42.5q0 -30 -21 -55q-12 -15 -41 -26
q25 -9 41 -25q13 -14 20 -29t7 -34zM672 279l-112 -109h112v109z" />
    <glyph glyph-name="uniE008" unicode="&#xe008;" horiz-adv-x="576" 
d="M561 164q-1 -50 -11 -84t-29 -59q-39 -50 -92 -50q-24 0 -43.5 13t-34.5 36q-16 24 -23 57t-7 75q0 24 1.5 50t3.5 54q2 26 5 59t8 74h-88l-45 -341q-6 -30 -23 -53q-18 -27 -54 -27q-25 0 -47 20q-19 20 -19 47q0 20 8 33t20 27q21 21 32 40q12 22 15 39l27 215h-33
q-21 0 -39 -12q-9 -5 -18.5 -17t-21.5 -35h-42q14 45 27.5 73.5t30.5 51.5q35 50 98 50h386v-111h-128q-2 -23 -4 -51t-3 -61q-3 -72 -3 -111q0 -44 18 -60q19 -18 34 -18q16 0 32 16q7 8 11 21t4 39h47v0z" />
    <glyph glyph-name="uniE009" unicode="&#xe009;" horiz-adv-x="288" 
d="M306 860q0 -20 -17 -37q-16 -20 -47 -20q-12 0 -22 8q-10 7 -18 8q-7 1 -11 -1q-4 -3 -5 -5q0 -18 2.5 -56t7.5 -95q5 -61 8 -127t3 -136q0 -262 -26 -387q-13 -63 -41.5 -97.5t-75.5 -34.5q-23 0 -47 19q-25 22 -25 54q0 23 17 40t39 17q16 0 30 -12q6 -6 11 -10t10 -7
q7 4 11 23q6 24 6 70q0 34 -3 94q-3 61 -3 315q0 215 18 325q9 56 33 88.5t66 32.5q14 0 26.5 -4.5t24.5 -11.5q28 -18 28 -53z" />
    <glyph glyph-name="uniE00A" unicode="&#xe00a;" horiz-adv-x="806" 
d="M446 -13l18 174q32 11 56 29t45 47q40 56 40 165q0 122 -55 181q-55 61 -146 61q-92 0 -146 -59q-27 -30 -41.5 -75t-14.5 -108q0 -55 10 -95.5t29 -69.5q20 -29 44 -47.5t58 -27.5l19 -175h-322v188h38q6 -26 10.5 -37.5t8.5 -15.5q8 -9 37 -9h122q-2 2 -4.5 9.5
t-4.5 8.5q-77 26 -125 84q-62 76 -62 184q0 140 103 222q101 80 241 80q137 0 239 -79q104 -81 104 -223q0 -94 -58 -175q-54 -75 -140 -95q-2 -1 -5.5 -8t-5.5 -8h136q29 0 36 8q4 5 9 16.5t11 37.5h37v-188h-321z" />
    <glyph glyph-name="uniE00B" unicode="&#xe00b;" horiz-adv-x="576" 
d="M392 -79l-255 526l-96 -47l-27 56l169 83l185 -379l122 771l60 -8z" />
    <glyph glyph-name="uniE00C" unicode="&#xe00c;" horiz-adv-x="693" 
d="M611 514q-17 -30 -34.5 -47.5t-38.5 -28.5q-20 -11 -41 -17t-42 -6q-17 0 -47 7t-72 21q-85 28 -107 28q-26 0 -44 -12q-10 -6 -21.5 -17t-28.5 -34l-64 25q23 33 42.5 50.5t38.5 27.5q38 20 80 20q19 0 48.5 -7t71.5 -20q87 -26 100 -26q24 0 50 13q12 6 22.5 16.5
t23.5 27.5zM611 272q-17 -30 -34.5 -47.5t-38.5 -28.5q-20 -11 -41 -17t-42 -6q-17 0 -47 7t-72 21q-85 28 -107 28q-26 0 -44 -12q-10 -6 -21.5 -17t-28.5 -34l-64 25q23 33 42.5 50.5t38.5 27.5q38 20 80 20q19 0 48.5 -7t71.5 -20q87 -26 100 -26q24 0 50 13
q12 6 22.5 16.5t23.5 27.5z" />
    <glyph glyph-name="Delta" unicode="&#xe00d;" horiz-adv-x="643" 
d="M2 -13l340 732l300 -732h-640zM305 486l-198 -424h374z" />
    <glyph glyph-name="uniE00E" unicode="&#xe00e;" horiz-adv-x="519" 
d="M294 -13h-75l-200 390l200 381h75l201 -381zM257 664l-150 -287l150 -295l150 295z" />
    <glyph glyph-name="aring" unicode="&#xe5;" horiz-adv-x="1000" 
 />
    <glyph glyph-name="Euro" unicode="&#x20ac;" horiz-adv-x="711" 
d="M695 49q-29 -17 -58.5 -29t-61.5 -22q-69 -20 -126 -20q-166 0 -276 102q-59 55 -87 130h-73v65h56q-2 16 -3.5 32.5t-1.5 33.5q0 45 11 89h-62v65h85q13 29 32 55.5t43 49.5q110 104 273 104q56 0 119 -16q33 -8 62.5 -19t59.5 -27v-89q-38 23 -68 35.5t-60 22.5
q-58 19 -122 19q-63 0 -114 -21t-93 -62q-13 -12 -23 -24.5t-18 -26.5h473v-65h-503q-13 -40 -13 -90q0 -17 2 -33.5t4 -31.5h510v-65h-488q19 -45 54 -78q81 -81 212 -81q71 0 131 22q31 11 59.5 24.5t64.5 33.5v-83v0z" />
    </font>
</defs>
</svg>
